<svg width="20" height="20" viewBox="0 0 20 20" fill="none" xmlns="http://www.w3.org/2000/svg">
<path fill-rule="evenodd" clip-rule="evenodd" d="M14.42 4.33C15.0005 4.91039 15.4611 5.59945 15.7753 6.35785C16.0895 7.11624 16.2511 7.9291 16.2511 8.75C16.2511 9.5709 16.0895 10.3837 15.7753 11.1421C15.4611 11.9005 15.0005 12.5896 14.42 13.17L10 17.5875L5.58 13.1687C4.99956 12.5884 4.53913 11.8992 4.225 11.1408C3.91086 10.3825 3.74918 9.56961 3.74918 8.74875C3.74918 7.92788 3.91086 7.11505 4.225 6.35666C4.53913 5.59828 4.99956 4.90919 5.58 4.32875C6.16045 3.7483 6.84954 3.28788 7.60791 2.97374C8.3663 2.6596 9.17914 2.49793 10 2.49793C10.8209 2.49793 11.6337 2.6596 12.3921 2.97374C13.1505 3.28788 13.8395 3.7483 14.42 4.32875V4.33ZM15.745 14.495C16.8814 13.3587 17.6553 11.911 17.9689 10.3349C18.2824 8.75876 18.1215 7.12505 17.5066 5.64036C16.8916 4.15568 15.8503 2.88669 14.5141 1.99386C13.1779 1.10105 11.607 0.624512 10 0.624512C8.393 0.624512 6.82209 1.10105 5.48593 1.99386C4.14976 2.88669 3.10836 4.15568 2.49341 5.64036C1.87847 7.12505 1.71761 8.75876 2.03117 10.3349C2.34474 11.911 3.11864 13.3587 4.255 14.495L8.67375 18.915C8.84788 19.0892 9.05463 19.2275 9.2822 19.3217C9.50976 19.4161 9.75368 19.4646 10 19.4646C10.2463 19.4646 10.4903 19.4161 10.7178 19.3217C10.9454 19.2275 11.1521 19.0892 11.3263 18.915L15.745 14.495ZM10 11.25C10.6631 11.25 11.2989 10.9866 11.7678 10.5178C12.2366 10.0489 12.5 9.41304 12.5 8.75C12.5 8.08695 12.2366 7.45108 11.7678 6.98223C11.2989 6.51339 10.6631 6.25 10 6.25C9.33696 6.25 8.70108 6.51339 8.23224 6.98223C7.7634 7.45108 7.5 8.08695 7.5 8.75C7.5 9.41304 7.7634 10.0489 8.23224 10.5178C8.70108 10.9866 9.33696 11.25 10 11.25Z" fill="#FF9D37"/>
</svg>
