<svg width="819" height="121" viewBox="0 0 819 121" fill="none" xmlns="http://www.w3.org/2000/svg">
<path d="M87.1254 82.6267H20.3034C21.0454 88.1167 23.8054 93.1266 28.0444 96.6866C32.2344 100.167 37.5804 101.907 44.0824 101.907C47.7974 101.957 51.4844 101.257 54.9264 99.8566C58.3674 98.4566 61.4924 96.3867 64.1164 93.7567L81.6374 101.987C77.6664 107.837 72.2624 112.567 65.9424 115.737C59.8484 118.697 52.6114 120.187 44.2304 120.197C31.2514 120.197 20.6614 116.087 12.4604 107.887C4.25944 99.6767 0.170426 89.4066 0.195426 77.0666C0.195426 64.4166 4.27142 53.9166 12.4234 45.5466C20.5754 37.1766 30.7974 32.9967 43.0904 33.0167C56.1434 33.0167 66.7584 37.1866 74.9344 45.5466C83.1114 53.9066 87.1995 64.9566 87.1995 78.7066L87.1254 82.6267ZM66.3224 66.2467C64.9834 61.6667 62.1134 57.6866 58.1924 54.9766C54.0864 52.0566 49.1544 50.5367 44.1194 50.6267C38.6324 50.5267 33.2654 52.2467 28.8504 55.5067C26.1064 57.5467 23.5634 61.1267 21.2214 66.2467H66.3224Z" fill="#222E9A"/>
<path d="M124.607 35.137V44.6569C127.907 40.9469 131.945 37.957 136.464 35.897C140.947 33.937 145.794 32.957 150.685 33.007C155.625 32.937 160.484 34.2569 164.711 36.8169C169.032 39.5169 172.519 43.3669 174.779 47.9369C177.843 43.2769 182.019 39.4569 186.932 36.8169C191.79 34.2569 197.206 32.947 202.693 33.007C208.162 32.887 213.552 34.317 218.248 37.117C222.498 39.617 225.868 43.367 227.891 47.867C229.85 52.277 230.83 59.4569 230.83 69.4169V118.037H209.878V75.9769C209.878 66.5769 208.709 60.217 206.373 56.887C204.036 53.557 200.53 51.887 195.851 51.897C192.421 51.857 189.068 52.9269 186.292 54.9469C183.408 57.0669 181.221 59.997 180.008 63.367C178.636 66.947 177.95 72.697 177.95 80.617V118.037H156.997V77.887C156.997 70.467 156.45 65.097 155.357 61.757C154.526 58.837 152.806 56.2469 150.435 54.3469C148.125 52.6869 145.334 51.8269 142.49 51.9069C139.092 51.8869 135.78 52.967 133.052 54.997C130.132 57.187 127.929 60.197 126.721 63.647C125.324 67.347 124.621 73.1869 124.615 81.1669V118.047H103.812V55.9269C103.815 50.4169 106.007 45.1269 109.906 41.2269C113.805 37.3269 119.093 35.137 124.607 35.137Z" fill="#222E9A"/>
<path d="M269.134 35.1367V118.037H248.34V55.9166C248.345 50.4066 250.538 45.1267 254.437 41.2267C258.336 37.3267 263.622 35.1367 269.134 35.1367Z" fill="#222E9A"/>
<path d="M308.832 35.1371V43.6271C313.548 39.6571 317.821 36.8971 321.653 35.3371C325.382 33.8071 329.375 33.0071 333.408 33.0071C337.299 32.9371 341.163 33.6571 344.762 35.1471C348.361 36.6271 351.618 38.8271 354.332 41.6171C359.147 46.4971 361.554 53.7071 361.554 63.2571V118.037H340.982V81.7271C340.982 71.8371 340.541 65.2671 339.657 62.0171C338.974 59.1071 337.344 56.4971 335.021 54.6071C332.663 52.8571 329.78 51.957 326.845 52.057C322.821 51.977 318.931 53.497 316.017 56.277C313.007 59.087 310.915 62.987 309.741 67.957C309.122 70.537 308.813 76.1471 308.813 84.7671V118.037H287.992V55.917C287.994 53.187 288.535 50.477 289.584 47.957C290.633 45.437 292.169 43.137 294.104 41.207C296.04 39.277 298.337 37.747 300.864 36.707C303.391 35.667 306.099 35.1271 308.832 35.1371Z" fill="#222E9A"/>
<path d="M475 33.6901V44.0701C476.634 40.3101 479.284 37.09 482.652 34.75C485.734 32.66 489.379 31.5501 493.105 31.5701C496.031 31.6301 498.904 32.3501 501.507 33.6901L495.1 51.49C493.266 50.44 491.221 49.8201 489.114 49.6601C485.929 49.6601 483.241 51.6301 481.05 55.5701C478.859 59.5201 477.761 67.24 477.755 78.75L477.828 82.77V116.07H457.27V51.37C457.28 46.68 459.152 42.18 462.476 38.86C465.801 35.55 470.305 33.6901 475 33.6901Z" fill="#222E9A"/>
<path d="M581.65 33.69H593.238V116.07H572.561V107.35C569.051 110.84 564.935 113.65 560.415 115.65C556.229 117.37 551.741 118.23 547.216 118.19C536.574 118.19 527.369 114.06 519.601 105.8C511.833 97.54 507.949 87.27 507.949 75.01C507.949 62.28 511.705 51.8599 519.216 43.7199C526.728 35.5899 535.86 31.52 546.612 31.53C551.393 31.5 556.129 32.4499 560.525 34.3299C565.044 36.3299 569.132 39.1799 572.561 42.7399C572.568 40.3399 573.529 38.0299 575.233 36.3399C576.937 34.6399 579.245 33.69 581.65 33.69ZM550.859 50.62C547.873 50.55 544.906 51.11 542.157 52.28C539.408 53.45 536.942 55.2 534.923 57.4C530.707 61.92 528.595 67.72 528.589 74.79C528.583 81.86 530.719 87.7199 534.996 92.3599C536.997 94.5799 539.451 96.35 542.192 97.54C544.933 98.73 547.898 99.32 550.886 99.26C553.906 99.34 556.908 98.7799 559.694 97.6099C562.479 96.4399 564.984 94.6899 567.042 92.4799C571.313 87.9599 573.449 82.0399 573.449 74.7099C573.449 67.5499 571.313 61.75 567.042 57.32C564.964 55.14 562.45 53.41 559.662 52.25C556.874 51.1 553.875 50.54 550.859 50.62Z" fill="#222E9A"/>
<path d="M605.324 33.6899C611.577 33.6899 617.692 35.5298 622.911 38.9698C628.131 42.4098 632.225 47.3099 634.687 53.0599L647.218 82.3499L659.785 52.9099C662.232 47.2099 666.299 42.3399 671.483 38.9299C676.667 35.5099 682.739 33.6899 688.947 33.6899L653.881 116.07H640.472L605.324 33.6899Z" fill="#222E9A"/>
<path d="M783.599 80.8502H717.166C717.9 86.3002 720.642 91.2803 724.854 94.8103C729.016 98.2703 734.331 100 740.799 100C744.494 100.06 748.161 99.3702 751.584 97.9802C755.007 96.5802 758.116 94.5203 760.726 91.9003L778.117 100.09C774.184 105.9 768.826 110.6 762.556 113.75C756.497 116.71 749.302 118.19 740.973 118.19C728.036 118.19 717.507 114.11 709.385 105.95C701.263 97.7903 697.196 87.5803 697.184 75.3103C697.184 62.7403 701.239 52.3003 709.349 43.9903C717.458 35.6703 727.622 31.5203 739.838 31.5303C752.805 31.5303 763.359 35.6803 771.499 43.9903C779.639 52.2903 783.703 63.2803 783.691 76.9403L783.599 80.8502ZM762.922 64.5503C761.586 60.0103 758.734 56.0502 754.84 53.3502C750.754 50.4502 745.846 48.9303 740.836 49.0303C735.382 48.9303 730.047 50.6303 725.66 53.8703C722.932 55.9003 720.403 59.4603 718.072 64.5503H762.922Z" fill="#222E9A"/>
<path d="M818.747 1.84033V116.07H798.07V22.5104C798.07 19.8004 798.605 17.1103 799.644 14.6003C800.683 12.0903 802.206 9.81038 804.126 7.89038C806.046 5.97038 808.325 4.4504 810.834 3.4104C813.343 2.3704 816.032 1.84033 818.747 1.84033Z" fill="#222E9A"/>
<path d="M403.641 0C408.765 0 413.68 2.03003 417.304 5.66003C420.928 9.28003 422.963 14.2001 422.963 19.3201V76.16C422.963 76.16 421.801 108.75 440.107 108.75L441.645 115.35C441.645 115.35 403.641 125.09 403.641 77.26V52.35L379 59.55V51.39L403.714 30.03L403.641 0Z" fill="#222E9A"/>
<path d="M428.168 32.2002V51.8002L444.159 59.4701V50.5602L428.168 32.2002Z" fill="#222E9A"/>
</svg>
