<svg width="842" height="440" viewBox="0 0 842 440" fill="none" xmlns="http://www.w3.org/2000/svg">
<path d="M383.533 273.676H405V426.721H366.695V410.521C360.193 417.005 352.568 422.225 344.195 425.941C336.44 429.136 328.126 430.734 319.743 430.66C300.028 430.66 282.976 422.987 268.586 407.642C254.195 392.296 247 373.217 247 350.44C247 326.79 253.958 307.432 267.872 292.31C281.789 277.206 298.706 269.645 318.624 269.663C327.481 269.608 336.255 271.372 344.398 274.865C352.77 278.581 360.343 283.875 366.695 290.489C366.708 286.03 368.489 281.739 371.645 278.599C374.802 275.441 379.078 273.676 383.533 273.676ZM326.492 305.129C320.96 304.999 315.464 306.039 310.371 308.213C305.278 310.386 300.71 313.637 296.97 317.724C289.16 326.122 285.247 336.897 285.236 350.031C285.225 363.166 289.182 374.053 297.105 382.673C300.812 386.797 305.358 390.085 310.436 392.296C315.514 394.507 321.006 395.603 326.542 395.492C332.136 395.64 337.698 394.6 342.859 392.426C348.018 390.253 352.659 387.001 356.471 382.896C364.383 374.498 368.34 363.5 368.34 349.883C368.34 336.581 364.383 325.806 356.471 317.576C352.622 313.526 347.964 310.312 342.8 308.157C337.635 306.02 332.079 304.98 326.492 305.129Z" fill="#222E9A"/>
<path d="M705.961 381.697C704.864 383.518 703.299 385.011 701.43 386.021C699.56 387.032 697.454 387.523 695.33 387.444C691.097 387.223 687.004 385.853 683.493 383.479C679.153 380.85 675.271 377.531 672 373.653C674.532 373.804 677.069 373.463 679.47 372.647C684.291 371.568 689.316 371.842 693.991 373.44C698.666 375.037 702.808 377.895 705.961 381.697Z" fill="#BDCC4C"/>
<path d="M701.507 381.496H700.961L696.824 380.606L692.658 379.715C689.497 379.025 685.274 377.905 681.539 376.985C681.165 376.985 678.407 376.152 677.947 376.095C678.35 376.267 680.82 376.871 681.022 376.957L683.722 377.732C685.676 378.278 690.704 379.514 692.572 379.974C694.53 380.525 696.515 380.976 698.519 381.324L699.697 381.468H700.904H701.536L701.507 381.496Z" fill="#607F79"/>
<path d="M177.692 127.245C178.28 129.283 178.315 131.441 177.794 133.497C177.272 135.553 176.213 137.433 174.725 138.944C171.738 141.946 167.999 144.089 163.9 145.149C159.071 146.605 154.042 147.282 149 147.155C150.778 145.351 152.199 143.228 153.188 140.897C155.616 136.582 159.19 133.024 163.515 130.614C167.839 128.205 172.746 127.039 177.692 127.245Z" fill="#BDCC4C"/>
<path d="M174.65 130.38L174.245 130.722L170.834 133.251L167.394 135.752C164.793 137.685 161.125 140.069 157.975 142.256C157.686 142.454 155.288 144.044 154.941 144.329C154.941 144.329 157.368 142.768 157.628 142.598L159.996 141.094C161.7 140.016 165.947 137.062 167.536 135.954C169.248 134.862 170.898 133.676 172.478 132.403C172.791 132.152 173.09 131.886 173.376 131.605C173.692 131.36 173.983 131.083 174.244 130.779L174.65 130.351L174.65 130.38Z" fill="#607F79"/>
<path d="M241.706 117.336H113.88C115.299 127.838 120.579 137.421 128.688 144.232C136.703 150.889 146.93 154.217 159.368 154.217C166.474 154.313 173.527 152.974 180.112 150.296C186.694 147.618 192.672 143.658 197.691 138.627L231.208 154.37C223.612 165.561 213.274 174.609 201.184 180.673C189.527 186.335 175.683 189.186 159.651 189.205C134.823 189.205 114.565 181.343 98.8765 165.657C83.1885 149.951 75.3665 130.305 75.4143 106.7C75.4143 82.5009 83.2114 62.415 98.8057 46.4037C114.4 30.3924 133.954 22.3964 157.47 22.4347C182.44 22.4347 202.745 30.4115 218.386 46.4037C234.028 62.3959 241.848 83.5339 241.848 109.837L241.706 117.336ZM201.911 86.0017C199.35 77.2404 193.86 69.6269 186.359 64.4428C178.505 58.857 169.07 55.9494 159.438 56.1216C148.942 55.9303 138.675 59.2205 130.23 65.4567C124.98 69.3591 120.116 76.2075 115.636 86.0017H201.911Z" fill="#222E9A"/>
<path d="M313.405 26.4903V44.7013C319.717 37.6043 327.442 31.8848 336.086 27.9441C344.662 24.1948 353.934 22.32 363.29 22.4157C372.74 22.2818 382.037 24.8067 390.123 29.7039C398.389 34.8688 405.057 42.2336 409.381 50.9758C415.242 42.0615 423.232 34.754 432.631 29.7039C441.924 24.8067 452.282 22.3009 462.779 22.4157C473.24 22.1861 483.553 24.9216 492.536 30.2779C500.666 35.0602 507.111 42.2337 510.981 50.842C514.728 59.278 516.603 73.0128 516.603 92.0657V185.073H476.523V104.615C476.523 86.6331 474.289 74.4668 469.82 68.0967C465.35 61.7266 458.641 58.5321 449.69 58.5512C443.129 58.4747 436.717 60.5214 431.406 64.3855C425.889 68.4409 421.704 74.0459 419.384 80.4926C416.759 87.3409 415.447 98.3403 415.447 113.491V185.073H375.367V108.269C375.367 94.0745 374.32 83.802 372.229 77.4128C370.64 71.827 367.348 66.8724 362.812 63.2378C358.393 60.0623 353.054 58.4171 347.614 58.5701C341.114 58.5318 334.778 60.598 329.559 64.4813C323.974 68.6706 319.759 74.4286 317.449 81.0282C314.776 88.1061 313.433 99.2775 313.422 114.543V185.092H273.627V66.2602C273.631 55.7199 277.824 45.6005 285.283 38.14C292.741 30.6795 302.857 26.4903 313.405 26.4903Z" fill="#222E9A"/>
<path d="M589.877 26.4902V185.073H550.1V66.241C550.109 55.7007 554.304 45.6005 561.763 38.14C569.221 30.6795 579.333 26.4902 589.877 26.4902Z" fill="#222E9A"/>
<path d="M184.077 272.782V292.638C187.202 285.445 192.272 279.285 198.714 274.809C204.61 270.811 211.583 268.688 218.71 268.726C224.308 268.841 229.803 270.218 234.783 272.782L222.527 306.832C219.018 304.823 215.106 303.637 211.076 303.331C204.983 303.331 199.841 307.1 195.65 314.637C191.459 322.193 189.358 336.961 189.347 358.979L189.486 366.669V430.37H150.16V306.602C150.179 297.63 153.76 289.022 160.119 282.671C166.479 276.339 175.095 272.782 184.077 272.782Z" fill="#222E9A"/>
<path d="M774.408 362.995H647.326C648.73 373.42 653.975 382.947 662.033 389.699C669.994 396.318 680.162 399.627 692.535 399.627C699.603 399.742 706.618 398.422 713.166 395.763C719.714 393.085 725.661 389.145 730.654 384.133L763.922 399.8C756.398 410.914 746.149 419.905 734.154 425.93C722.564 431.593 708.8 434.424 692.867 434.424C668.12 434.424 647.978 426.619 632.441 411.01C616.905 395.4 609.125 375.869 609.102 352.397C609.102 328.351 616.859 308.38 632.373 292.484C647.885 276.568 667.328 268.629 690.696 268.648C715.501 268.648 735.69 276.587 751.262 292.484C766.833 308.361 774.607 329.384 774.584 355.515L774.408 362.995ZM734.855 331.814C732.299 323.129 726.843 315.554 719.394 310.389C711.578 304.841 702.189 301.934 692.605 302.125C682.172 301.934 671.967 305.186 663.574 311.384C658.356 315.267 653.518 322.077 649.059 331.814H734.855Z" fill="#222E9A"/>
<path d="M841.646 211.854V430.37H802.092V251.395C802.092 246.211 803.115 241.065 805.103 236.264C807.09 231.462 810.004 227.101 813.677 223.428C817.349 219.755 821.709 216.847 826.509 214.858C831.308 212.868 836.452 211.854 841.646 211.854Z" fill="#222E9A"/>
<path d="M47.5723 208.335C57.3742 208.335 66.7763 212.218 73.7088 219.162C80.6413 226.087 84.5341 235.499 84.5341 245.293V354.025C84.5341 354.025 82.3113 416.367 117.33 416.367L120.272 428.993C120.272 428.993 47.5723 447.625 47.5723 356.129V308.477L0.435547 322.251V306.641L47.712 265.781L47.5723 208.335Z" fill="#222E9A"/>
<path d="M94.4902 269.931V307.424L125.08 322.096V305.052L94.4902 269.931Z" fill="#222E9A"/>
<path d="M665.819 26.4897V42.7306C674.84 35.1362 683.014 29.8564 690.345 26.8722C697.478 23.9454 705.116 22.4152 712.831 22.4152C720.275 22.2812 727.666 23.6586 734.551 26.5089C741.436 29.34 747.666 33.5484 752.858 38.8855C762.069 48.2207 766.673 62.013 766.673 80.2816V185.072H727.32V115.614C727.32 96.6946 726.476 84.1267 724.785 77.9096C723.479 72.3429 720.361 67.3501 715.917 63.7346C711.406 60.387 705.891 58.6652 700.277 58.8565C692.579 58.7035 685.138 61.6111 679.563 66.9291C673.805 72.3045 669.804 79.765 667.558 89.2724C666.374 94.2077 665.782 104.939 665.782 121.429V185.072H625.953V66.2405C625.957 61.0181 626.992 55.8341 628.998 51.0135C631.005 46.1929 633.943 41.7932 637.645 38.1012C641.348 34.4092 645.743 31.4824 650.577 29.4929C655.411 27.5035 660.591 26.4706 665.819 26.4897Z" fill="#222E9A"/>
<path d="M779.3 268.896C774.631 268.17 769.853 269.016 765.718 271.303C761.606 273.522 758.144 276.775 755.672 280.74C755.955 279.012 756.094 277.263 756.088 275.511C756.144 272.5 755.597 269.508 754.478 266.712C753.359 263.916 751.691 261.372 749.572 259.232C747.383 257.147 744.631 255.748 741.657 255.206C738.683 254.665 735.615 255.005 732.831 256.185C730.754 257.276 728.956 258.833 727.58 260.733C726.203 262.634 725.284 264.827 724.895 267.141C724.179 271.813 725.031 276.592 727.319 280.729C729.531 284.838 732.779 288.299 736.739 290.768C735.016 290.49 733.272 290.353 731.526 290.359C728.505 290.297 725.502 290.848 722.7 291.979C719.898 293.11 717.354 294.797 715.222 296.939C713.136 299.126 711.734 301.876 711.19 304.849C710.646 307.822 710.983 310.89 712.159 313.674C713.25 315.755 714.809 317.556 716.712 318.934C718.616 320.312 720.813 321.23 723.131 321.616C727.796 322.348 732.571 321.498 736.697 319.203C740.815 316.999 744.283 313.753 746.752 309.788C746.46 311.508 746.318 313.25 746.327 314.995C746.265 318.016 746.816 321.019 747.947 323.821C749.078 326.624 750.765 329.168 752.907 331.299C755.093 333.388 757.843 334.79 760.816 335.334C763.79 335.879 766.858 335.541 769.642 334.362C771.723 333.27 773.522 331.711 774.9 329.808C776.278 327.905 777.197 325.708 777.584 323.39C778.308 318.726 777.459 313.953 775.171 309.824C772.961 305.704 769.709 302.234 765.74 299.763C767.478 300.034 769.236 300.152 770.994 300.114C774.014 300.165 777.013 299.609 779.814 298.478C782.615 297.348 785.16 295.666 787.298 293.533C789.385 291.345 790.786 288.594 791.327 285.619C791.868 282.644 791.527 279.576 790.345 276.792C789.244 274.709 787.672 272.911 785.755 271.54C783.838 270.17 781.628 269.264 779.3 268.896Z" fill="#F28D55"/>
<path d="M750.951 293.29C750.951 293.29 750.951 293.29 751.031 293.321C751.055 293.302 751.073 293.277 751.084 293.248C751.095 293.22 751.098 293.189 751.094 293.159C751.175 292.949 751.343 292.512 751.567 291.929C752.7 288.597 752.889 285.017 752.114 281.584C751.69 279.85 750.999 278.192 750.066 276.67C749.14 275.137 747.915 273.805 746.464 272.755C745.587 272.133 744.618 271.653 743.592 271.334C742.491 270.966 741.312 270.897 740.176 271.133C738.961 271.419 737.897 272.15 737.194 273.181C736.475 274.204 736.019 275.387 735.866 276.628C735.658 279.134 736.135 281.649 737.245 283.905C738.275 286.137 739.717 288.155 741.496 289.853C742.559 290.907 743.744 291.832 745.026 292.606C746.351 293.422 747.816 293.986 749.346 294.27C749.346 294.27 749.492 294.326 749.513 294.223C749.535 294.119 749.513 294.223 749.368 294.167L748.801 293.948L747.927 293.612C747.17 293.318 746.434 292.972 745.724 292.578C744.632 291.952 743.608 291.215 742.668 290.379C740.975 288.85 739.553 287.045 738.461 285.042C737.694 283.634 737.117 282.131 736.745 280.571C736.247 278.576 736.405 276.474 737.196 274.575C737.552 273.619 738.182 272.789 739.007 272.188C739.43 271.942 739.888 271.761 740.366 271.652C740.834 271.568 741.311 271.545 741.785 271.586C742.643 271.658 743.482 271.881 744.264 272.243C744.889 272.527 745.484 272.874 746.039 273.279C747.941 274.784 749.416 276.762 750.316 279.015C751.245 281.26 751.758 283.655 751.83 286.084C751.881 288.02 751.709 289.955 751.318 291.852C751.163 292.498 751.024 293.002 750.985 293.247L750.951 293.29Z" fill="#404040"/>
<path d="M753.111 295.083C753.111 295.083 753.111 295.083 753.08 295.164C753.048 295.244 753.08 295.164 753.241 295.226C753.638 295.416 754.05 295.574 754.471 295.699C757.838 296.848 761.459 297.025 764.922 296.212C766.645 295.759 768.284 295.036 769.78 294.069C771.313 293.143 772.645 291.918 773.695 290.466C774.316 289.596 774.794 288.632 775.11 287.611C775.483 286.505 775.554 285.32 775.317 284.178C775.025 282.966 774.296 281.904 773.269 281.197C772.243 280.485 771.061 280.03 769.822 279.869C767.32 279.657 764.807 280.128 762.552 281.232C760.332 282.253 758.322 283.678 756.622 285.434C755.568 286.497 754.644 287.682 753.869 288.963C753.053 290.289 752.489 291.754 752.205 293.284C752.174 293.365 752.149 293.43 752.246 293.467C752.343 293.505 752.246 293.467 752.308 293.306C752.371 293.144 752.427 292.998 752.52 292.755C752.614 292.513 752.732 292.205 752.857 291.881C753.151 291.124 753.496 290.388 753.891 289.678C754.517 288.586 755.253 287.562 756.09 286.623C757.616 284.926 759.421 283.503 761.427 282.415C762.802 281.633 764.28 281.045 765.817 280.668C767.813 280.133 769.93 280.257 771.85 281.022C772.809 281.425 773.621 282.114 774.175 282.995C774.427 283.415 774.608 283.874 774.711 284.354C774.794 284.816 774.818 285.288 774.784 285.757C774.709 286.62 774.484 287.465 774.12 288.252C773.838 288.872 773.493 289.461 773.09 290.01C771.582 291.917 769.603 293.396 767.348 294.303C765.104 295.227 762.711 295.735 760.286 295.802C758.349 295.861 756.413 295.689 754.518 295.29L753.122 294.957L753.111 295.083Z" fill="#404040"/>
<path d="M751.401 297.179C751.392 297.167 751.379 297.158 751.365 297.152C751.351 297.147 751.335 297.145 751.32 297.147C751.32 297.147 751.32 297.147 751.264 297.293C751.072 297.695 750.912 298.112 750.784 298.539C749.672 301.875 749.51 305.454 750.315 308.877C750.733 310.613 751.424 312.271 752.363 313.79C753.282 315.326 754.511 316.654 755.972 317.689C756.842 318.31 757.806 318.788 758.827 319.105C759.933 319.477 761.117 319.548 762.26 319.312C763.468 319.025 764.528 318.301 765.235 317.28C765.949 316.248 766.406 315.061 766.569 313.817C766.781 311.314 766.31 308.802 765.206 306.546C764.185 304.327 762.76 302.316 761.004 300.617C759.94 299.561 758.757 298.632 757.481 297.847C756.151 297.039 754.688 296.476 753.16 296.183C753.16 296.183 753.014 296.127 752.977 296.224C752.939 296.321 752.977 296.224 753.138 296.287L753.689 296.498L754.563 296.835C755.318 297.135 756.052 297.486 756.76 297.886C757.851 298.508 758.877 299.239 759.822 300.068C761.518 301.594 762.941 303.399 764.029 305.405C764.799 306.816 765.374 308.326 765.739 309.892C766.28 311.888 766.156 314.006 765.385 315.925C764.973 316.873 764.288 317.677 763.418 318.234C763 318.492 762.54 318.673 762.059 318.77C761.594 318.85 761.122 318.88 760.65 318.859C759.786 318.788 758.942 318.557 758.161 318.179C757.537 317.906 756.946 317.56 756.403 317.149C754.493 315.644 753.013 313.664 752.11 311.407C751.181 309.165 750.673 306.771 750.611 304.345C750.55 302.414 750.72 300.483 751.117 298.593C751.263 297.924 751.395 297.436 751.45 297.197L751.401 297.179Z" fill="#404040"/>
<path d="M749.245 295.451C749.245 295.451 749.245 295.451 749.276 295.37C749.307 295.289 749.276 295.37 749.13 295.314C748.985 295.258 748.467 295.058 747.884 294.834C744.516 293.692 740.897 293.515 737.433 294.321C735.708 294.777 734.063 295.498 732.559 296.458C731.026 297.381 729.699 298.609 728.661 300.067C728.041 300.945 727.556 301.911 727.223 302.932C726.86 304.037 726.797 305.218 727.038 306.355C727.318 307.566 728.044 308.628 729.07 309.33C730.098 310.051 731.287 310.509 732.533 310.664C735.039 310.872 737.554 310.396 739.81 309.285C742.032 308.268 744.043 306.843 745.739 305.083C746.794 304.019 747.724 302.837 748.509 301.56C749.316 300.23 749.88 298.767 750.173 297.239C750.204 297.158 750.229 297.093 750.125 297.072C750.022 297.051 750.125 297.072 750.069 297.218C750.013 297.363 749.951 297.525 749.857 297.768C749.764 298.011 749.646 298.318 749.515 298.658C749.208 299.368 748.855 300.058 748.459 300.723C747.829 301.81 747.099 302.835 746.277 303.785C744.747 305.478 742.943 306.901 740.94 307.992C739.523 308.751 738.015 309.326 736.453 309.702C734.457 310.237 732.341 310.108 730.426 309.332C729.478 308.926 728.672 308.247 728.111 307.381C727.859 306.961 727.678 306.502 727.575 306.023C727.493 305.552 727.465 305.074 727.492 304.597C727.565 303.739 727.787 302.9 728.149 302.119C728.439 301.494 728.791 300.902 729.202 300.35C730.703 298.443 732.682 296.968 734.937 296.073C737.194 295.127 739.606 294.607 742.051 294.539C743.982 294.478 745.913 294.647 747.803 295.044C748.465 295.206 748.953 295.338 749.199 295.377L749.245 295.451Z" fill="#404040"/>
<path d="M745.679 295.937C746.094 297 746.819 297.914 747.759 298.561C748.699 299.208 749.812 299.558 750.953 299.566C752.101 299.548 753.216 299.174 754.142 298.496C755.069 297.818 755.763 296.869 756.128 295.78C756.431 294.686 756.384 293.525 755.995 292.459C755.606 291.393 754.894 290.475 753.958 289.834C749.714 286.955 743.802 291.015 745.679 295.937Z" fill="#EFA8BB"/>
<path d="M503.837 434.254C522.153 427.575 538.843 417.293 552.855 404.055C566.867 390.816 577.897 374.909 585.251 357.335C596.949 329.669 599.688 299.21 593.106 270C562.257 294.721 531.254 323.642 512.858 357.964C499.621 382.565 501.146 406.813 503.837 434.254Z" fill="#87BDB3"/>
<path d="M536.976 338.134C536.976 338.134 536.976 338.134 537.129 338.313C537.292 338.682 537.397 339.073 537.442 339.472C539.007 345.649 540.019 351.946 540.464 358.292L540.802 361.243L540.875 362.241C544.089 356.696 547.516 350.728 551.148 344.697L554.202 339.632L554.044 335.43C554.007 334.352 553.98 333.468 553.905 332.772C553.444 328.325 553.255 323.854 553.337 319.385C553.426 317.602 553.597 315.855 553.871 313.924C553.864 313.493 553.896 313.063 553.969 312.638C553.969 312.638 553.969 312.638 554.122 312.817C554.208 313.203 554.265 313.595 554.291 313.99C555.204 320.198 555.552 326.471 555.33 332.738L555.344 335.797L555.358 337.397C559.691 330.3 564.26 323.115 568.765 316.586C569.849 314.812 578.778 301.414 580.237 299.289L580.514 299.067L580.268 299.264C578.994 301.241 571.757 313.031 570.844 314.517C568.156 319.037 565.463 323.611 562.826 328.191L557.603 337.41L563.113 334.857L572.036 330.827C572.812 330.457 578.675 327.772 579.66 327.587C579.7 327.601 579.734 327.625 579.761 327.657C579.788 327.688 579.806 327.726 579.813 327.766C579.813 327.766 579.941 327.916 579.786 328.039C579.015 328.657 573.958 330.948 573.326 331.304L567.666 334.228L561.879 337.003L556.221 339.625L549.874 350.449L542.747 363.157L549.604 360.783C552.755 359.668 555.963 358.557 559.072 357.575C559.868 357.29 566.078 355.132 567.232 354.963L567.385 355.142C567.385 355.142 567.385 355.142 567.2 355.29C564.972 356.286 562.694 357.171 560.373 357.942L554.367 360.339C552.888 360.92 550.62 361.731 548.146 362.606L541.607 364.926L537.663 372.113L530.717 385.582L536.131 384.013C538.763 383.263 541.451 382.518 544.017 381.871C544.689 381.685 549.928 380.155 550.84 380.128L550.968 380.278C550.351 380.772 545.744 381.947 545.184 382.144L540.098 383.854L534.972 385.394L530 386.812L529.692 387.059L521.689 402.029L518.606 407.973C517.588 409.946 516.771 411.909 515.712 414.016L514.368 417.006L514.615 416.809L515.738 414.046L517.927 408.516L520.199 403.022C521.725 399.332 523.384 395.737 525.074 392.118C526.082 389.951 527.172 387.819 528.262 385.688L527.795 383.193C527.629 382.268 527.473 381.538 527.332 380.946C526.385 377.304 525.693 373.605 525.259 369.873C525.09 368.397 525.009 366.902 524.984 365.412L524.891 364.329L525.045 364.205C525.045 364.205 525.045 364.205 525.172 364.354C525.301 364.667 525.403 364.99 525.476 365.319C526.981 370.377 528.025 375.553 528.599 380.787L528.973 383.356L529.089 383.918C531.304 379.575 533.633 375.243 536.038 371L540.022 363.982L539.548 360.687C539.424 359.629 539.279 358.789 539.148 358.088C538.185 353.636 537.514 349.13 537.14 344.596C537.029 342.823 537.006 341.03 537.038 339.242C536.994 338.874 536.973 338.504 536.976 338.134Z" fill="#404040"/>
<path d="M525.163 434.254C506.847 427.575 490.157 417.293 476.145 404.055C462.133 390.816 451.103 374.909 443.749 357.335C432.051 329.669 429.312 299.21 435.894 270C466.743 294.721 497.746 323.642 516.142 357.964C529.379 382.565 527.854 406.813 525.163 434.254Z" fill="#87BDB3"/>
<path d="M492.024 338.134C492.024 338.134 492.024 338.134 491.871 338.313C491.708 338.682 491.603 339.073 491.558 339.472C489.993 345.649 488.981 351.946 488.536 358.292L488.198 361.243L488.125 362.241C484.911 356.696 481.484 350.728 477.852 344.697L474.798 339.632L474.956 335.43C474.993 334.352 475.02 333.468 475.095 332.772C475.556 328.325 475.745 323.854 475.663 319.385C475.574 317.602 475.403 315.855 475.129 313.924C475.136 313.493 475.104 313.063 475.031 312.638C475.031 312.638 475.031 312.638 474.878 312.817C474.792 313.203 474.735 313.595 474.709 313.99C473.796 320.198 473.448 326.471 473.67 332.738L473.656 335.797L473.642 337.397C469.309 330.3 464.74 323.115 460.235 316.586C459.151 314.812 450.222 301.414 448.763 299.289L448.486 299.067L448.732 299.264C450.006 301.241 457.243 313.031 458.156 314.517C460.844 319.037 463.537 323.611 466.174 328.191L471.397 337.41L465.887 334.857L456.964 330.827C456.188 330.457 450.325 327.772 449.34 327.587C449.3 327.601 449.266 327.625 449.239 327.657C449.212 327.688 449.194 327.726 449.187 327.766C449.187 327.766 449.059 327.916 449.214 328.039C449.985 328.657 455.042 330.948 455.674 331.304L461.334 334.228L467.121 337.003L472.779 339.625L479.126 350.449L486.253 363.157L479.396 360.783C476.245 359.668 473.037 358.557 469.928 357.575C469.132 357.29 462.922 355.132 461.768 354.963L461.615 355.142C461.615 355.142 461.615 355.142 461.8 355.29C464.028 356.286 466.306 357.171 468.627 357.942L474.633 360.339C476.112 360.92 478.38 361.731 480.854 362.606L487.393 364.926L491.337 372.113L498.283 385.582L492.869 384.013C490.237 383.263 487.549 382.518 484.983 381.871C484.311 381.685 479.072 380.155 478.16 380.128L478.032 380.278C478.649 380.772 483.256 381.947 483.816 382.144L488.902 383.854L494.028 385.394L499 386.812L499.308 387.059L507.311 402.029L510.394 407.973C511.412 409.946 512.229 411.909 513.288 414.016L514.632 417.006L514.385 416.809L513.262 414.046L511.073 408.516L508.801 403.022C507.275 399.332 505.616 395.737 503.926 392.118C502.918 389.951 501.828 387.819 500.738 385.688L501.205 383.193C501.371 382.268 501.527 381.538 501.668 380.946C502.615 377.304 503.307 373.605 503.741 369.873C503.91 368.397 503.991 366.902 504.016 365.412L504.109 364.329L503.955 364.205C503.955 364.205 503.955 364.205 503.828 364.354C503.699 364.667 503.597 364.99 503.524 365.319C502.019 370.377 500.975 375.553 500.401 380.787L500.027 383.356L499.911 383.918C497.696 379.575 495.367 375.243 492.962 371L488.978 363.982L489.452 360.687C489.576 359.629 489.721 358.789 489.852 358.088C490.815 353.636 491.486 349.13 491.86 344.596C491.971 342.823 491.994 341.03 491.962 339.242C492.006 338.874 492.027 338.504 492.024 338.134Z" fill="#404040"/>
<path d="M185.009 27.0012C184.124 25.3312 183.566 23.5071 183.367 21.6274C183.24 20.7937 183.375 19.9412 183.754 19.1879C184.133 18.4346 184.737 17.8179 185.483 17.4232C187.654 16.6157 190.411 18.704 192.778 18.3977C195.144 18.0914 196.091 16.0032 196.843 13.9428C197.291 11.8164 198.246 9.82969 199.627 8.1514C200.888 7.29845 202.403 6.89994 203.921 7.02138C205.438 7.14281 206.87 7.77703 207.98 8.81969C210.583 10.9784 212.444 13.9001 213.298 17.1726C214.111 20.3599 214.559 23.6292 214.634 26.9177L215.553 42.816C215.72 45.7395 217.753 54.8442 214.022 55.0669C210.987 55.2618 205.53 50.8626 202.885 48.8858C199.311 46.1857 196.06 43.0841 193.195 39.6419C189.917 35.8109 187.164 31.5599 185.009 27.0012Z" fill="#F8C970"/>
<path d="M236.242 19.1491C237.641 17.8628 239.264 16.8436 241.031 16.142C241.803 15.8051 242.66 15.7178 243.484 15.8926C244.308 16.0673 245.057 16.4953 245.625 17.1166C246.989 19.0099 245.625 22.2118 246.572 24.4114C247.133 25.3173 247.928 26.0546 248.875 26.5448C249.821 27.035 250.882 27.2599 251.945 27.1957C254.125 27.1015 256.295 27.5412 258.266 28.4766C259.399 29.4675 260.166 30.8107 260.444 32.2904C260.722 33.77 260.494 35.3001 259.797 36.6346C258.348 39.7215 255.973 42.2807 253.003 43.9573C250.131 45.5672 247.086 46.8468 243.927 47.7718L228.808 52.8113C226.024 53.7302 217.671 58.0736 216.557 54.5097C215.61 51.7254 218.45 45.2102 219.675 42.1753C221.351 38.0169 223.5 34.0651 226.079 30.3977C228.945 26.2076 232.363 22.4238 236.242 19.1491Z" fill="#F8C970"/>
<path d="M258.097 60.8866C259.838 61.6441 261.409 62.7423 262.719 64.1164C263.329 64.6929 263.746 65.4427 263.916 66.2644C264.085 67.0861 263.998 67.94 263.666 68.7105C262.441 70.7152 258.96 70.743 257.317 72.4415C256.707 73.3155 256.343 74.3381 256.265 75.4013C256.187 76.4646 256.396 77.5293 256.872 78.4834C257.817 80.4422 258.266 82.603 258.181 84.776C257.714 86.2126 256.775 87.4488 255.516 88.2831C254.257 89.1174 252.752 89.5005 251.248 89.3701C247.84 89.2339 244.556 88.0583 241.837 86.0011C239.269 84.0164 236.925 81.7569 234.848 79.2631L224.296 67.3462C222.375 65.1466 215.135 59.2161 217.947 56.738C220.231 54.7055 227.247 54.8169 230.505 54.7612C234.984 54.6915 239.457 55.121 243.841 56.042C248.791 57.0041 253.586 58.6338 258.097 60.8866Z" fill="#F8C970"/>
<path d="M225.659 98.475C225.521 100.414 225 102.307 224.127 104.044C223.788 104.814 223.216 105.459 222.492 105.888C221.769 106.317 220.929 106.51 220.09 106.438C217.807 105.937 216.638 102.679 214.522 101.677C213.501 101.39 212.422 101.384 211.398 101.658C210.374 101.933 209.443 102.478 208.702 103.236C207.142 104.775 205.231 105.912 203.134 106.549C201.628 106.572 200.158 106.087 198.961 105.173C197.764 104.259 196.91 102.969 196.535 101.51C195.478 98.2618 195.478 94.7622 196.535 91.5142C197.581 88.3988 198.973 85.4103 200.684 82.6045L208.48 68.683C209.927 66.1214 213.129 57.3508 216.415 59.1885C219.06 60.6642 221.26 67.3187 222.401 70.3257C223.957 74.5325 225.022 78.905 225.575 83.3562C226.283 88.3691 226.311 93.4545 225.659 98.475Z" fill="#F8C970"/>
<path d="M178.661 78.6513C176.832 79.056 174.943 79.1127 173.092 78.8184C172.257 78.7218 171.472 78.3668 170.848 77.8027C170.224 77.2386 169.792 76.4937 169.612 75.6721C169.389 73.3333 172.174 71.245 172.396 68.8784C172.619 66.5117 170.976 65.0639 169.167 63.7831C167.241 62.7593 165.59 61.2889 164.35 59.4953C163.87 58.072 163.884 56.5286 164.389 55.1142C164.894 53.6998 165.861 52.4968 167.134 51.6993C169.956 49.7907 173.307 48.8167 176.712 48.915C179.998 48.9739 183.267 49.4036 186.457 50.1957L202.021 53.509C204.806 54.0938 214.217 54.5392 213.465 58.2145C212.824 61.1937 207.144 65.2867 204.555 67.2914C201.008 70.0322 197.159 72.3583 193.084 74.2243C188.493 76.3322 183.643 77.8209 178.661 78.6513Z" fill="#F8C970"/>
<path d="M204.359 17.1172C204.359 17.4235 204.944 18.3702 205.39 19.3447C205.835 20.3192 206.281 21.2658 206.336 21.4886C206.865 22.7972 207.367 24.2728 207.812 25.4701C208.257 26.6673 209.176 29.4239 209.872 32.0411C210.568 34.6583 211.125 37.2478 211.376 38.6678C211.877 41.6191 212.211 44.7375 212.601 47.7167L213.019 51.2806C213.019 51.6148 213.019 51.8932 213.019 52.0602L212.545 51.559C209.761 48.552 206.726 45.6285 203.886 42.6214C200.119 38.508 196.622 34.1554 193.417 29.5909C193.083 29.1732 190.8 25.6371 190.41 25.1081C190.41 25.1081 191.078 26.3054 191.635 27.1964L192.888 29.0897C193.64 30.2591 194.42 31.4007 195.199 32.5422C195.979 33.6838 197.649 35.8277 199.32 37.8603C200.991 39.8928 202.717 41.8418 203.636 42.8999C205.542 45.1865 207.597 47.3444 209.789 49.3595C210.68 50.1391 211.543 50.9186 212.573 51.6425L213.241 52.1716C213.261 51.9028 213.261 51.633 213.241 51.3642C213.288 47.0655 212.83 42.7762 211.877 38.5842C210.756 32.9318 209.087 27.4019 206.893 22.0732C206.893 21.7948 206.308 20.6811 205.779 19.5674C205.25 18.4537 204.527 17.4235 204.359 17.1172Z" fill="#404040"/>
<path d="M250.803 35.2716C250.803 35.2716 250.803 35.2716 250.803 35.1324C250.803 35.1324 249.717 36.0233 248.91 36.6916C248.102 37.3598 247.295 38.0559 247.1 38.1673C245.958 39.0304 244.817 39.8379 243.647 40.6175C242.478 41.3971 240.139 42.9563 237.828 44.3206C235.517 45.6849 233.123 46.8821 231.786 47.4947C229.002 48.7476 226.218 49.8892 223.433 51.0307L220.092 52.3672L219.396 52.6178C219.396 52.6178 219.591 52.2837 219.73 52.0331C221.902 48.4971 223.935 44.8496 226.134 41.3414C229.118 36.6343 232.401 32.1237 235.963 27.8375C236.297 27.392 239.109 24.3015 239.527 23.7725C239.527 23.7725 238.552 24.7191 237.856 25.4987C237.16 26.2783 236.492 27.03 236.352 27.1971C235.406 28.2273 234.515 29.2576 233.568 30.3156C232.622 31.3736 231.007 33.5454 229.503 35.6893C228 37.8332 226.524 40.0049 225.716 41.2579C223.973 43.6185 222.374 46.0825 220.927 48.6363C220.398 49.6943 219.897 50.7523 219.452 51.8382C219.316 52.0906 219.195 52.351 219.09 52.6178L219.897 52.4229C224.051 51.3432 228.068 49.7925 231.87 47.801C237.039 45.2448 241.945 42.1859 246.515 38.6685C246.738 38.5014 247.712 37.7496 248.631 36.9422C249.385 36.4247 250.11 35.8671 250.803 35.2716Z" fill="#404040"/>
<path d="M248.994 80.5996C248.994 80.5996 247.741 79.9591 246.794 79.4858C245.848 79.0124 244.929 78.5113 244.734 78.3721C243.509 77.676 242.312 76.9243 241.115 76.1447C239.917 75.3651 237.606 73.8615 235.546 72.2467C233.486 70.6318 231.342 68.9333 230.256 67.9588C228.028 65.9263 225.857 63.6988 223.713 61.5827L221.179 59.049C221.016 58.8514 220.839 58.6654 220.65 58.4922H221.346C225.439 59.1047 229.699 59.5502 233.68 60.1906C239.178 61.092 244.61 62.357 249.941 63.9773C250.47 63.9773 254.423 65.4807 255.092 65.6478C255.092 65.6478 253.839 65.1188 252.864 64.7847L250.693 64.0608C249.384 63.5875 248.075 63.1698 246.739 62.78C245.402 62.3902 242.785 61.6941 240.224 61.1094C237.662 60.5247 235.1 60.0792 233.708 59.8008C230.795 59.1929 227.848 58.7651 224.882 58.52C223.713 58.52 222.543 58.52 221.374 58.52H220.455L220.956 59.1883C223.565 62.5992 226.565 65.6923 229.894 68.4043C234.264 72.1617 238.992 75.4816 244.01 78.3164C244.261 78.3164 245.319 79.0403 246.433 79.5972C247.546 80.154 248.771 80.4603 248.994 80.5996Z" fill="#404040"/>
<path d="M204.053 96.3593C204.053 96.3593 204.248 94.9671 204.387 93.9369C204.527 92.9067 204.694 91.8487 204.749 91.6259C205 90.2338 205.306 88.8417 205.64 87.4773C205.974 86.113 206.671 83.3844 207.478 80.8228C208.285 78.2613 209.232 75.7832 209.789 74.4467C210.958 71.6624 212.378 68.8781 213.659 66.0938L215.218 62.8363C215.385 62.5578 215.497 62.3072 215.58 62.168L215.72 62.8363C216.499 66.9013 217.418 70.9664 218.17 75.0593C219.135 80.582 219.731 86.163 219.952 91.7651C219.952 92.322 219.952 96.4984 219.952 97.1667C219.999 96.3599 219.999 95.5511 219.952 94.7443C219.952 93.7141 219.952 92.7118 219.952 92.4891C219.952 91.0969 219.952 89.7048 219.952 88.3405C219.952 86.9762 219.673 84.2475 219.367 81.6303C219.061 79.0131 218.643 76.4515 218.448 75.0315C218.078 72.0826 217.511 69.1617 216.75 66.2888C216.443 65.1472 216.109 64.0335 215.72 62.9198C215.641 62.6458 215.548 62.3763 215.441 62.1123C215.441 62.1123 215.19 62.4743 214.996 62.8084C212.63 66.3925 210.696 70.2428 209.232 74.2797C207.11 79.6794 205.524 85.275 204.499 90.9855C204.499 91.2639 204.22 92.4612 204.081 93.7698C204.02 94.6316 204.011 95.4964 204.053 96.3593Z" fill="#404040"/>
<path d="M174.232 57.3793C174.232 57.3793 175.597 57.1565 176.655 56.9894L178.966 56.6275C180.358 56.4604 181.75 56.349 183.198 56.2655C184.646 56.182 187.374 56.0149 190.075 56.0149C192.776 56.0149 195.421 56.182 196.869 56.3212C199.848 56.5997 202.939 57.1287 205.918 57.5185L209.482 58.0475L210.233 58.1867L209.621 58.5208C205.973 60.4976 202.354 62.5859 198.706 64.5349C193.75 67.0785 188.634 69.3013 183.393 71.1894C182.892 71.4121 178.882 72.6651 178.27 72.9156C178.27 72.9156 179.606 72.5815 180.581 72.2752L182.752 71.5792L186.678 70.2427C188.07 69.7416 190.521 68.767 192.915 67.6811C195.31 66.5953 197.648 65.4537 198.929 64.8968C201.624 63.635 204.245 62.2221 206.781 60.6647C207.755 59.9965 208.73 59.3561 209.565 58.66L210.261 58.1589L209.482 57.9361C205.356 56.7434 201.103 56.0425 196.813 55.8479C191.057 55.4463 185.276 55.6049 179.55 56.3212C179.3 56.3212 178.075 56.4882 176.766 56.711C175.458 56.9337 174.567 57.2957 174.232 57.3793Z" fill="#404040"/>
<path d="M208.786 57.4063C209.098 58.8524 209.839 60.1709 210.912 61.1892C211.985 62.2076 213.34 62.8785 214.8 63.1142C216.271 63.3 217.764 63.0314 219.078 62.3446C220.392 61.6578 221.464 60.5857 222.151 59.2719C222.627 58.2689 222.86 57.1679 222.831 56.058C222.803 54.9482 222.513 53.8607 221.986 52.8835C221.459 51.9064 220.71 51.067 219.798 50.4333C218.887 49.7996 217.839 49.3893 216.739 49.2359C215.64 49.0824 214.519 49.19 213.469 49.5498C212.419 49.9097 211.468 50.5117 210.694 51.3073C209.919 52.1028 209.343 53.0695 209.012 54.129C208.68 55.1886 208.603 56.3113 208.786 57.4063Z" fill="#E8B25D"/>
<path d="M747.766 20.14C746.036 13.5 744.836 6.19 747.766 0L751.416 4.2C753.297 6.16533 754.881 8.39567 756.116 10.82C757.426 13.75 757.696 17.02 757.946 20.22C758.332 25.14 758.716 30.06 759.096 34.98C762.314 32.6704 766.035 31.1587 769.952 30.5693C773.869 29.9799 777.87 30.3297 781.626 31.59C779.013 35.816 775.24 39.2007 770.756 41.34C768.146 42.57 765.166 43.34 762.386 42.61C760.534 42.0264 758.855 40.9961 757.496 39.61C752.186 34.53 749.616 27.26 747.766 20.14Z" fill="#933A6F"/>
<path d="M753.415 28.69C753.66 23.7026 755.649 18.9598 759.035 15.29C762.411 11.647 766.569 8.81614 771.195 7.00998C772.345 6.52998 773.725 6.10998 774.795 6.75998C775.865 7.40998 776.125 8.75998 776.225 10.05C776.621 15.4656 775.805 20.9015 773.834 25.9615C771.864 31.0216 768.79 35.5784 764.835 39.3C768.715 36.48 774.275 37.8 778.325 40.36C782.375 42.92 785.695 46.6 789.965 48.78C787.078 50.4361 783.885 51.4894 780.579 51.8761C777.273 52.2628 773.923 51.9749 770.732 51.0298C767.541 50.0847 764.574 48.5021 762.012 46.3777C759.45 44.2532 757.345 41.6311 755.825 38.67C754.206 35.595 753.378 32.1651 753.415 28.69Z" fill="#CC6A9B"/>
<path d="M753.606 38.9709L754.456 40.0609C756.456 42.6309 757.786 45.4309 760.276 47.6709C763.437 50.5113 767.39 52.3186 771.606 52.8509C768.096 52.3609 763.606 46.8509 761.606 44.2909C758.886 40.9272 756.698 37.167 755.116 33.1409C754.871 32.5465 754.67 31.9349 754.516 31.3109C754.381 30.5516 754.31 29.7821 754.306 29.0109C754.231 26.1647 753.832 23.3364 753.116 20.5809C753.094 20.449 753.027 20.3289 752.926 20.2409C752.746 20.1209 752.506 20.2409 752.336 20.3709C750.581 21.7647 749.449 23.7956 749.186 26.0209C748.932 28.2336 749.193 30.475 749.946 32.5709C750.777 34.9044 752.016 37.0715 753.606 38.9709Z" fill="#311E38"/>
<path d="M751.516 35.3804C750.861 34.7339 750.082 34.227 749.226 33.8904C748.821 33.7284 748.398 33.6143 747.966 33.5504C747.756 33.5504 747.546 33.5504 747.326 33.4904C747.174 33.4583 747.018 33.4583 746.866 33.4904C746.786 33.5806 746.725 33.6861 746.686 33.8004L746.386 34.4204C746.196 34.8404 745.986 35.2604 745.816 35.6904C745.446 36.5304 745.106 37.4004 744.756 38.2904L744.546 38.2004C744.681 38.0366 744.825 37.8797 744.976 37.7304C744.896 37.9304 744.826 38.1304 744.746 38.3204L744.496 38.9104V38.2404C744.554 37.2786 744.719 36.3262 744.986 35.4004C745.136 34.9404 745.276 34.4804 745.466 34.0304L745.756 33.3704C745.872 33.0343 746.111 32.7552 746.426 32.5904C746.724 32.4835 747.043 32.4525 747.356 32.5004C747.616 32.5201 747.873 32.5602 748.126 32.6204C748.621 32.7406 749.096 32.9326 749.536 33.1904C750.416 33.6865 751.111 34.4551 751.516 35.3804Z" fill="#311E38"/>
<path d="M754.715 39.4002L753.715 38.3302C753.385 37.9802 753.055 37.6402 752.715 37.3302L753.465 37.1902C753.154 38.1973 752.739 39.1693 752.225 40.0902C751.727 41.0223 751.098 41.8778 750.355 42.6302C750.495 42.1102 750.665 41.6302 750.845 41.1302C751.025 40.6302 751.215 40.1302 751.415 39.6902C751.805 38.6902 752.205 37.8102 752.635 36.8802L752.955 36.2002L753.375 36.7402C754.006 37.5213 754.463 38.4282 754.715 39.4002Z" fill="#311E38"/>
<path d="M751.185 21.76C751.185 21.76 750.995 21.39 750.645 20.76C750.433 20.3929 750.199 20.0389 749.945 19.7C749.804 19.4848 749.647 19.2809 749.475 19.09C749.295 18.88 749.125 18.65 748.915 18.43C746.945 16.2833 744.355 14.8046 741.505 14.2C740.751 14.0497 739.984 13.9727 739.215 13.97C738.533 13.9554 737.865 14.1663 737.315 14.57C737.099 14.7813 736.938 15.042 736.846 15.3295C736.754 15.6169 736.733 15.9226 736.785 16.22C736.866 16.8353 737.037 17.4353 737.295 18C737.545 18.51 737.875 18.94 738.295 18.95C738.473 18.9501 738.644 18.8816 738.773 18.7586C738.901 18.6356 738.977 18.4677 738.985 18.29C738.985 18.1619 738.955 18.0358 738.897 17.9213C738.84 17.8068 738.757 17.7071 738.655 17.63C738.576 17.576 738.488 17.5355 738.395 17.51C738.493 17.5188 738.588 17.5459 738.675 17.59C738.812 17.6511 738.932 17.7468 739.021 17.8677C739.11 17.9886 739.167 18.1307 739.185 18.28C739.187 18.5256 739.098 18.7634 738.936 18.9478C738.773 19.1322 738.549 19.2505 738.305 19.28C737.984 19.2626 737.675 19.1548 737.413 18.9689C737.151 18.7831 736.947 18.5269 736.825 18.23C736.482 17.6231 736.23 16.9696 736.075 16.29C735.97 15.8669 735.975 15.4239 736.091 15.0036C736.207 14.5832 736.428 14.1997 736.735 13.89C737.412 13.2951 738.284 12.9679 739.185 12.97C740.037 12.9541 740.888 13.0245 741.725 13.18C742.548 13.3559 743.351 13.6104 744.125 13.94C744.875 14.2568 745.595 14.6418 746.275 15.09C746.902 15.5102 747.488 15.989 748.025 16.52C748.513 16.9885 748.961 17.4969 749.365 18.04C749.715 18.4839 750.023 18.9592 750.285 19.46C750.535 19.9 750.695 20.31 750.845 20.64C750.995 20.97 751.045 21.25 751.115 21.43L751.185 21.76Z" fill="#311E38"/>
<path d="M752.905 20.93L752.535 19.87C752.315 19.2 751.925 18.26 751.455 17.15C750.274 14.4626 748.762 11.9331 746.955 9.62004C746.462 8.95337 745.952 8.34338 745.425 7.79004C744.955 7.23093 744.398 6.75141 743.775 6.37004C743.219 6.0371 742.57 5.89325 741.925 5.96004C741.664 5.97303 741.41 6.04824 741.184 6.17938C740.957 6.31053 740.766 6.49381 740.625 6.71397C740.484 6.93412 740.398 7.18476 740.374 7.445C740.349 7.70524 740.387 7.96754 740.485 8.21004C740.547 8.3868 740.658 8.54242 740.805 8.65912C740.952 8.77582 741.129 8.84891 741.315 8.87004C741.443 8.88264 741.572 8.86159 741.69 8.80898C741.807 8.75637 741.909 8.67401 741.985 8.57004C742.013 8.48226 742.013 8.38782 741.985 8.30004C742.016 8.39768 742.016 8.5024 741.985 8.60004C741.92 8.734 741.819 8.84762 741.694 8.92867C741.569 9.00972 741.424 9.05514 741.275 9.06004C741.034 9.07262 740.794 9.01389 740.586 8.89119C740.378 8.76848 740.211 8.58723 740.105 8.37004C739.953 8.09517 739.866 7.78918 739.85 7.47547C739.835 7.16176 739.891 6.84864 740.015 6.56004C740.176 6.21685 740.417 5.91757 740.718 5.68773C741.019 5.45789 741.372 5.30429 741.745 5.24004C742.558 5.07203 743.404 5.19595 744.135 5.59004C744.888 5.98052 745.565 6.502 746.135 7.13004C746.695 7.73004 747.235 8.35004 747.745 9.00004C748.735 10.2756 749.609 11.6378 750.355 13.07C750.996 14.32 751.541 15.6171 751.985 16.95C752.287 17.8916 752.534 18.8499 752.725 19.82C752.855 20.53 752.905 20.93 752.905 20.93Z" fill="#311E38"/>
<path d="M213.511 257.388C211.877 255.148 209.675 253.385 207.131 252.282C204.588 251.178 201.795 250.774 199.043 251.111C196.3 251.509 193.694 252.563 191.447 254.185C189.199 255.807 187.377 257.948 186.135 260.426C185.029 262.518 184.56 264.888 184.787 267.243C185.426 272.257 190.208 275.885 195.134 277.036C199.707 278.06 204.493 277.466 208.677 275.355C211.087 274.231 213.117 272.429 214.519 270.17C215.544 268.153 215.992 265.892 215.815 263.637C215.637 261.382 214.84 259.219 213.511 257.388Z" fill="#F44719"/>
<path d="M215.324 260.448C214.939 260.191 214.533 259.969 214.109 259.783C212.974 259.274 211.762 258.957 210.523 258.844C209.692 258.756 208.856 258.733 208.022 258.775C207.143 258.831 206.179 258.915 205.256 259.061C204.269 259.211 203.294 259.429 202.337 259.715C201.346 259.986 200.378 260.334 199.44 260.754C198.96 260.942 198.491 261.168 198.038 261.398C197.569 261.611 197.113 261.852 196.673 262.12C196.255 262.4 195.802 262.629 195.384 262.91C194.965 263.19 194.567 263.457 194.159 263.73C193.411 264.283 192.691 264.874 192.003 265.5C191.385 266.064 190.798 266.661 190.242 267.286C189.719 267.874 189.287 268.444 188.89 268.932C188.492 269.42 188.187 269.891 187.942 270.276L187.185 271.508L187.823 270.253C188.44 269.142 189.154 268.089 189.959 267.106C190.491 266.45 191.059 265.824 191.658 265.228C192.333 264.56 193.051 263.935 193.807 263.36C194.215 263.086 194.634 262.806 195.052 262.525C195.471 262.245 195.91 261.951 196.338 261.664C196.767 261.377 197.206 261.083 197.71 260.908C198.214 260.733 198.663 260.432 199.153 260.237C200.118 259.82 201.112 259.475 202.128 259.204C203.107 258.928 204.104 258.72 205.112 258.581C206.046 258.451 206.989 258.382 207.932 258.376C208.786 258.362 209.64 258.418 210.485 258.544C211.753 258.701 212.982 259.091 214.109 259.694C214.537 259.907 214.943 260.16 215.324 260.448Z" fill="#311E38"/>
<path d="M200.213 261.356C200.585 261.608 201.014 261.763 201.461 261.807C202.007 261.905 202.568 261.876 203.101 261.722C203.633 261.567 204.123 261.292 204.532 260.917C204.925 260.525 205.16 260.003 205.192 259.45C205.225 258.896 205.053 258.35 204.709 257.915C204.207 257.442 203.54 257.183 202.85 257.193C202.301 257.148 201.749 257.236 201.241 257.45C200.733 257.664 200.284 257.998 199.933 258.423C199.606 258.859 199.453 259.401 199.505 259.944C199.557 260.487 199.809 260.99 200.213 261.356Z" fill="#311E38"/>
<path d="M209.121 255.228C210.143 253.553 206.798 252.599 205.814 252.741C205.539 252.741 205.272 252.833 205.056 253.002C204.839 253.171 204.686 253.408 204.62 253.674C204.627 253.902 204.691 254.125 204.807 254.321C204.923 254.517 205.087 254.681 205.283 254.797C206.038 255.363 206.952 255.677 207.895 255.694C208.122 255.727 208.354 255.701 208.568 255.62C208.783 255.538 208.973 255.403 209.121 255.228Z" fill="#311E38"/>
<path d="M210.033 264.671C209.647 264.695 209.278 264.835 208.971 265.072C207.822 265.96 206.799 268.45 208.664 269.226C208.974 269.338 209.308 269.366 209.632 269.307C209.956 269.248 210.259 269.105 210.51 268.891C211.014 268.462 211.367 267.884 211.518 267.24C211.643 266.851 211.661 266.437 211.571 266.04C211.482 265.642 211.288 265.276 211.009 264.978C210.875 264.865 210.719 264.78 210.552 264.727C210.385 264.674 210.208 264.655 210.033 264.671Z" fill="#311E38"/>
<path d="M195.469 253.416C194.661 253.472 193.882 253.74 193.209 254.191C192.874 254.416 192.6 254.72 192.41 255.077C192.221 255.433 192.122 255.831 192.123 256.234C192.14 256.64 192.3 257.026 192.576 257.323C192.851 257.621 193.223 257.811 193.626 257.86C194.109 257.834 194.574 257.671 194.967 257.39C195.599 257.045 196.127 256.538 196.497 255.921C196.68 255.611 196.777 255.258 196.78 254.898C196.783 254.538 196.691 254.183 196.513 253.87C196.405 253.674 196.231 253.523 196.021 253.445C195.841 253.396 195.653 253.386 195.469 253.416Z" fill="#311E38"/>
<path d="M202.998 274.03C203.361 273.709 203.634 273.3 203.791 272.842C203.948 272.385 203.984 271.894 203.895 271.418C203.856 271.132 203.725 270.867 203.522 270.663C203.359 270.529 203.171 270.429 202.969 270.368C202.22 270.08 201.396 270.044 200.625 270.267C200.243 270.379 199.894 270.582 199.608 270.859C199.322 271.136 199.107 271.478 198.983 271.855C198.857 272.351 198.903 272.875 199.113 273.341C199.323 273.807 199.686 274.188 200.14 274.422C200.603 274.641 201.12 274.72 201.627 274.651C202.135 274.581 202.611 274.366 202.998 274.03Z" fill="#311E38"/>
<path d="M189.997 264.89C190.625 263.951 190.315 262.385 188.921 262.446C188.643 262.483 188.376 262.583 188.142 262.74C187.909 262.896 187.714 263.105 187.574 263.349C187.072 264.099 186.483 265.736 187.911 265.903C188.317 265.938 188.726 265.863 189.094 265.684C189.461 265.506 189.773 265.231 189.997 264.89Z" fill="#311E38"/>
<path d="M193.84 269.325C193.767 269.688 193.611 270.029 193.382 270.32C193.154 270.612 192.86 270.846 192.525 271.004C190.521 271.963 189.969 269.109 191.316 268.073C192.663 267.038 194.099 267.658 193.84 269.325Z" fill="#311E38"/>
<path d="M216.167 267.202C217.257 266.542 218.222 265.696 219.017 264.701C219.409 264.194 219.697 263.614 219.863 262.995C220.03 262.375 220.072 261.729 219.986 261.094C219.699 259.835 219.013 258.702 218.03 257.865C216.282 256.182 213.641 254.89 211.467 255.948C211.199 258.819 211.684 261.71 212.873 264.337C213.187 265.021 213.643 265.631 214.211 266.125C214.779 266.619 215.446 266.986 216.167 267.202Z" fill="#311E38"/>
<path d="M217.208 258.845L217.523 256.8C217.703 255.27 218.022 253.759 218.477 252.287C218.971 250.805 219.849 249.481 221.024 248.451C221.4 248.121 221.806 247.824 222.235 247.566C221.838 247.864 221.465 248.193 221.119 248.55C220.091 249.631 219.374 250.97 219.043 252.425C218.736 253.886 218.564 255.373 218.529 256.866L218.424 258.917L217.208 258.845Z" fill="#311E38"/>
<path d="M218.847 262.02L218.876 261.423C218.925 260.506 219.086 259.598 219.357 258.72C219.465 258.352 219.645 257.98 219.801 257.595C220.173 256.808 220.623 256.06 221.145 255.364C221.677 254.686 222.277 254.066 222.936 253.513C223.273 253.287 223.566 253.017 223.906 252.863C224.184 252.645 224.477 252.449 224.784 252.275C225.243 252.028 225.722 251.82 226.217 251.655L226.775 251.473C226.775 251.473 226.602 251.589 226.234 251.703C225.761 251.907 225.307 252.152 224.876 252.435C224.581 252.612 224.295 252.803 224.019 253.009C223.723 253.208 223.461 253.501 223.162 253.761C222.585 254.346 222.069 254.989 221.623 255.679C221.188 256.371 220.829 257.108 220.551 257.876C220.425 258.223 220.322 258.579 220.244 258.94C220.158 259.259 220.094 259.584 220.052 259.911C219.985 260.396 219.957 260.884 219.966 261.373L219.985 261.952L218.847 262.02Z" fill="#311E38"/>
<path d="M213.124 271.489C213.968 270.743 215.058 270.334 216.184 270.34C216.574 270.403 216.944 270.558 217.261 270.793C217.578 271.029 217.834 271.337 218.007 271.692" stroke="#311E38" stroke-width="0.75" stroke-miterlimit="10"/>
<path d="M210.051 273.988C210.295 274.019 210.529 274.102 210.738 274.231C210.947 274.36 211.126 274.533 211.262 274.737C211.399 274.941 211.491 275.172 211.531 275.414C211.571 275.656 211.558 275.904 211.494 276.142C211.194 276.816 210.706 277.39 210.088 277.794" stroke="#311E38" stroke-width="0.75" stroke-miterlimit="10"/>
<path d="M204.166 276.856C204.303 276.898 204.42 276.986 204.5 277.105C204.58 277.224 204.616 277.366 204.604 277.509C204.564 277.79 204.442 278.052 204.251 278.262C203.742 278.933 203.024 279.415 202.21 279.63" stroke="#311E38" stroke-width="0.75" stroke-miterlimit="10"/>
<path d="M195.529 277.184C195.281 277.779 194.896 278.307 194.406 278.725C193.916 279.144 193.333 279.441 192.707 279.592" stroke="#311E38" stroke-width="0.75" stroke-miterlimit="10"/>
</svg>
