<svg width="440" height="216" viewBox="0 0 440 216" fill="none" xmlns="http://www.w3.org/2000/svg">
<path d="M126.125 49.6267H59.3034C60.0454 55.1167 62.8054 60.1266 67.0444 63.6866C71.2344 67.1666 76.5804 68.9066 83.0824 68.9066C86.7974 68.9566 90.4844 68.2566 93.9264 66.8566C97.3674 65.4566 100.492 63.3867 103.116 60.7567L120.637 68.9866C116.666 74.8366 111.262 79.5666 104.942 82.7366C98.8484 85.6966 91.6114 87.1866 83.2304 87.1966C70.2514 87.1966 59.6614 83.0867 51.4604 74.8867C43.2594 66.6767 39.1704 56.4066 39.1954 44.0666C39.1954 31.4166 43.2714 20.9166 51.4234 12.5466C59.5754 4.17658 69.7974 -0.00332701 82.0904 0.016673C95.1434 0.016673 105.758 4.18658 113.934 12.5466C122.111 20.9066 126.199 31.9566 126.199 45.7066L126.125 49.6267ZM105.322 33.2467C103.983 28.6667 101.113 24.6866 97.1924 21.9766C93.0864 19.0566 88.1544 17.5367 83.1194 17.6267C77.6324 17.5267 72.2654 19.2467 67.8504 22.5067C65.1064 24.5467 62.5634 28.1267 60.2214 33.2467H105.322Z" fill="#222E9A"/>
<path d="M163.607 2.13698V11.6569C166.907 7.94688 170.945 4.95699 175.464 2.89699C179.947 0.936993 184.794 -0.0430217 189.685 0.00697828C194.625 -0.0630217 199.484 1.25691 203.711 3.81691C208.032 6.51691 211.519 10.3669 213.779 14.9369C216.843 10.2769 221.019 6.45691 225.932 3.81691C230.79 1.25691 236.206 -0.0530217 241.693 0.00697828C247.162 -0.113022 252.552 1.31696 257.248 4.11696C261.498 6.61696 264.868 10.367 266.891 14.867C268.85 19.277 269.83 26.4569 269.83 36.4169V85.0369H248.878V42.9769C248.878 33.5769 247.709 27.217 245.373 23.887C243.036 20.557 239.53 18.887 234.851 18.897C231.421 18.857 228.068 19.9269 225.292 21.9469C222.408 24.0669 220.221 26.997 219.008 30.367C217.636 33.947 216.95 39.697 216.95 47.617V85.0369H195.997V44.887C195.997 37.467 195.45 32.097 194.357 28.757C193.526 25.837 191.806 23.2469 189.435 21.3469C187.125 19.6869 184.334 18.8269 181.49 18.9069C178.092 18.8869 174.78 19.967 172.052 21.997C169.132 24.187 166.929 27.197 165.721 30.647C164.324 34.347 163.621 40.1869 163.615 48.1669V85.0469H142.812V22.9269C142.815 17.4169 145.007 12.1269 148.906 8.22695C152.805 4.32695 158.093 2.13698 163.607 2.13698Z" fill="#222E9A"/>
<path d="M308.134 2.13672V85.0366H287.34V22.9166C287.345 17.4066 289.538 12.1267 293.437 8.22668C297.336 4.32668 302.622 2.13672 308.134 2.13672Z" fill="#222E9A"/>
<path d="M347.832 2.1371V10.6271C352.548 6.65709 356.821 3.89705 360.653 2.33705C364.382 0.807051 368.375 0.00709496 372.408 0.00709496C376.299 -0.062905 380.163 0.657109 383.762 2.14711C387.361 3.62711 390.618 5.82708 393.332 8.61708C398.147 13.4971 400.554 20.7071 400.554 30.2571V85.037H379.982V48.7271C379.982 38.8371 379.541 32.2671 378.657 29.0171C377.974 26.1071 376.344 23.4971 374.021 21.6071C371.663 19.8571 368.78 18.957 365.845 19.057C361.821 18.977 357.931 20.497 355.017 23.277C352.007 26.087 349.915 29.987 348.741 34.957C348.122 37.537 347.813 43.1471 347.813 51.7671V85.037H326.992V22.917C326.994 20.187 327.535 17.477 328.584 14.957C329.633 12.437 331.169 10.137 333.104 8.20705C335.04 6.27705 337.337 4.74705 339.864 3.70705C342.391 2.66705 345.099 2.1271 347.832 2.1371Z" fill="#222E9A"/>
<path d="M95.9995 130.887V141.267C97.6335 137.507 100.284 134.287 103.652 131.947C106.734 129.857 110.379 128.747 114.105 128.767C117.031 128.827 119.904 129.547 122.507 130.887L116.1 148.687C114.266 147.637 112.221 147.017 110.114 146.857C106.929 146.857 104.241 148.827 102.05 152.767C99.8585 156.717 98.7605 164.437 98.7545 175.947L98.8275 179.967V213.267H78.2695V148.567C78.2795 143.877 80.1515 139.377 83.4755 136.057C86.8005 132.747 91.3045 130.887 95.9995 130.887Z" fill="#222E9A"/>
<path d="M202.65 130.887H214.238V213.267H193.561V204.547C190.051 208.037 185.935 210.847 181.415 212.847C177.229 214.567 172.741 215.427 168.216 215.387C157.574 215.387 148.369 211.257 140.601 202.997C132.833 194.737 128.949 184.467 128.949 172.207C128.949 159.477 132.705 149.057 140.216 140.917C147.728 132.787 156.86 128.717 167.612 128.727C172.393 128.697 177.129 129.647 181.525 131.527C186.044 133.527 190.132 136.377 193.561 139.937C193.568 137.537 194.529 135.227 196.233 133.537C197.937 131.837 200.245 130.887 202.65 130.887ZM171.859 147.817C168.873 147.747 165.906 148.307 163.157 149.477C160.408 150.647 157.942 152.397 155.923 154.597C151.707 159.117 149.595 164.917 149.589 171.987C149.583 179.057 151.719 184.917 155.996 189.557C157.997 191.777 160.451 193.547 163.192 194.737C165.933 195.927 168.898 196.517 171.886 196.457C174.906 196.537 177.908 195.977 180.694 194.807C183.479 193.637 185.984 191.887 188.042 189.677C192.313 185.157 194.449 179.237 194.449 171.907C194.449 164.747 192.313 158.947 188.042 154.517C185.964 152.337 183.45 150.607 180.662 149.447C177.874 148.297 174.875 147.737 171.859 147.817Z" fill="#222E9A"/>
<path d="M226.324 130.887C232.577 130.887 238.692 132.727 243.911 136.167C249.131 139.607 253.225 144.507 255.687 150.257L268.218 179.547L280.785 150.107C283.232 144.407 287.299 139.537 292.483 136.127C297.667 132.707 303.739 130.887 309.947 130.887L274.881 213.267H261.472L226.324 130.887Z" fill="#222E9A"/>
<path d="M404.599 178.047H338.166C338.9 183.497 341.642 188.477 345.854 192.007C350.016 195.467 355.331 197.197 361.799 197.197C365.494 197.257 369.161 196.567 372.584 195.177C376.007 193.777 379.116 191.717 381.726 189.097L399.117 197.287C395.184 203.097 389.826 207.797 383.556 210.947C377.497 213.907 370.302 215.387 361.973 215.387C349.036 215.387 338.507 211.307 330.385 203.147C322.263 194.987 318.196 184.777 318.184 172.507C318.184 159.937 322.239 149.497 330.349 141.187C338.458 132.867 348.622 128.717 360.838 128.727C373.805 128.727 384.359 132.877 392.499 141.187C400.639 149.487 404.703 160.477 404.691 174.137L404.599 178.047ZM383.922 161.747C382.586 157.207 379.734 153.247 375.84 150.547C371.754 147.647 366.846 146.127 361.836 146.227C356.382 146.127 351.047 147.827 346.66 151.067C343.932 153.097 341.403 156.657 339.072 161.747H383.922Z" fill="#222E9A"/>
<path d="M439.747 99.0371V213.267H419.07V119.707C419.07 116.997 419.605 114.307 420.644 111.797C421.683 109.287 423.206 107.007 425.126 105.087C427.046 103.167 429.325 101.647 431.834 100.607C434.343 99.5672 437.032 99.0371 439.747 99.0371Z" fill="#222E9A"/>
<path d="M24.641 97.1968C29.765 97.1968 34.68 99.2268 38.304 102.857C41.928 106.477 43.963 111.397 43.963 116.517V173.357C43.963 173.357 42.801 205.947 61.107 205.947L62.645 212.547C62.645 212.547 24.641 222.287 24.641 174.457V149.547L0 156.747V148.587L24.714 127.227L24.641 97.1968Z" fill="#222E9A"/>
<path d="M49.168 129.397V148.997L65.159 156.667V147.757L49.168 129.397Z" fill="#222E9A"/>
</svg>
