<svg width="730" height="155" viewBox="0 0 730 155" fill="none" xmlns="http://www.w3.org/2000/svg">
<path d="M409.574 150.562V141.245C408.842 141.441 408.14 141.737 407.487 142.122C380.08 165.973 340.628 151.606 328.916 118.224C320.737 94.9178 326.854 68.435 343.829 53.1903C352.146 45.4974 362.96 41.0631 374.283 40.7016C385.607 40.3401 396.681 44.0757 405.472 51.2225C406.634 52.1471 407.843 53.0243 409.052 53.949C414.481 43.4697 421.333 41.0276 436.649 44.2283V150.562H409.574ZM410.546 97.6443C411.636 75.8796 393.12 61.3461 372.374 67.6053C360.52 71.209 353.241 82.6129 353.075 96.8145C352.909 111.016 360.022 122.633 371.355 126.901C371.829 127.067 372.327 127.185 372.801 127.328C392.669 133.492 410.356 119.575 410.498 97.6443H410.546Z" fill="#222E9A"/>
<path d="M27.5779 105.207C28.398 111.605 31.4221 117.517 36.13 121.927C40.8379 126.336 46.9352 128.967 53.3731 129.367C58.3761 129.909 63.437 129.46 68.2661 128.044C73.0952 126.629 77.5976 124.274 81.5155 121.116C82.1029 120.65 82.7846 120.318 83.5133 120.142C84.2421 119.966 85.0003 119.95 85.7356 120.096C92.6349 123.036 99.3919 126.332 107.074 129.959C104.086 133.326 101.62 136.337 98.9177 139.087C77.1056 161.302 20.4178 162.346 4.08242 118.982C-8.24617 86.2877 8.11301 49.2308 42.8464 41.6677C80.3301 33.5119 114.66 56.7465 114.139 100.94C114.139 105.397 111.555 105.16 108.591 105.16H27.5779V105.207ZM85.8305 83.0159C81.7763 70.5688 70.2774 63.1953 56.2418 63.5747C43.3205 63.9066 32.3197 71.8016 29.3561 83.0159H85.8305Z" fill="#222E9A"/>
<path d="M598.698 105.444C599.472 111.566 602.299 117.243 606.718 121.55C611.136 125.856 616.885 128.537 623.024 129.153C633.787 130.315 643.65 128.3 652.209 121.211C652.873 120.697 653.644 120.34 654.466 120.168C655.287 119.995 656.137 120.011 656.951 120.215C663.708 123.084 670.275 126.356 677.554 129.698C675.847 132.069 674.567 134.037 672.954 135.792C656.809 153.218 636.324 156.466 614.417 152.032C593.53 147.765 579.494 134.559 573.97 113.932C564.083 77.2546 586.583 46.5043 616.409 41.5965C654.841 35.2663 681.561 59.4492 684.263 91.1005C684.5 93.9456 684.667 96.7669 684.951 99.5883C685.402 103.785 683.955 105.397 679.379 105.35C654.604 105.136 629.828 105.35 605.052 105.35L598.698 105.444ZM600.287 83.1344H656.382C654.635 77.6315 651.182 72.8273 646.524 69.4173C641.865 66.0073 636.242 64.1686 630.468 64.1673C615.626 63.7643 604.91 70.3316 600.287 83.1344Z" fill="#222E9A"/>
<path d="M452.251 43.5641C468.397 44.062 480.702 50.4634 488.028 63.7877C494.287 75.1205 498.768 87.4965 504.031 99.3509C504.837 101.177 505.643 103.002 506.9 105.895C508.062 103.524 508.891 101.793 509.626 100.086C514.06 89.654 518.304 79.1273 522.974 68.814C525.884 61.7268 530.742 55.6091 536.986 51.1696C543.23 46.7301 550.604 44.1507 558.253 43.7301C558.757 43.6708 559.266 43.6708 559.77 43.7301C560.279 43.8787 560.765 44.0939 561.217 44.3702C557.494 53.1899 553.82 62.0333 550.05 70.853C539.333 96.008 528.522 121.116 517.924 146.318C517.532 147.846 516.588 149.175 515.276 150.05C513.963 150.925 512.373 151.285 510.812 151.06C497.843 150.894 497.843 151.06 492.888 139.49C480.069 109.459 467.243 79.4276 454.408 49.3964C453.768 47.7368 453.176 46.0535 452.251 43.5641Z" fill="#222E9A"/>
<path d="M189.745 68.6006L158.26 77.6099C157.264 71.5641 156.932 66.7513 162.385 62.5785C170.731 56.1771 178.317 48.8037 186.45 42.1178C187.629 41.2305 188.563 40.0577 189.165 38.7097C189.766 37.3617 190.015 35.883 189.887 34.4125C189.745 24.929 189.887 15.4454 189.887 5.9619C189.887 4.16003 190.03 2.33443 190.101 0.603683C200.864 -0.795138 212.292 7.90599 214.805 19.2625C215.433 22.2002 215.743 25.1968 215.73 28.2007C215.73 52.0755 215.374 75.974 215.943 99.8488C216.33 108.965 217.746 118.008 220.163 126.806C221.069 130.407 222.978 133.677 225.668 136.237C228.358 138.797 231.719 140.542 235.361 141.268C237.589 141.861 238.822 146.223 240.648 149.068C227.158 154.261 205.725 149.969 196.881 133.278C191.547 123.226 190.029 112.438 189.769 101.342C189.65 90.6023 189.745 79.9334 189.745 68.6006Z" fill="#222E9A"/>
<path d="M730.001 2.45321V150.633H703.091C703.091 148.713 702.83 147.101 702.83 145.465C702.83 107.088 702.83 68.7036 702.83 30.3111C702.705 26.6771 703.318 23.0554 704.63 19.6643C705.942 16.2733 707.928 13.183 710.467 10.58C713.005 7.9769 716.045 5.91489 719.402 4.51819C722.759 3.12148 726.365 2.41906 730.001 2.45321Z" fill="#222E9A"/>
<path d="M259.615 150.965V126.664C259.615 106.606 259.615 86.5719 259.615 66.5143C259.585 63.4847 260.176 60.4812 261.352 57.689C262.528 54.8968 264.264 52.3754 266.452 50.2802C268.641 48.1851 271.235 46.5607 274.076 45.5076C276.917 44.4544 279.943 43.9947 282.968 44.1569V55.4186C292.12 42.3313 302.884 37.471 317.678 43.5641L309.594 66.1113C308.835 66.3483 308.456 66.6091 308.218 66.5143C299.257 62.8157 292.286 64.8784 289.251 77.5626C287.604 85.7325 286.809 94.0516 286.881 102.386C286.572 116.611 286.738 131.121 286.881 145.465C286.881 149.495 285.98 151.155 281.617 150.965C274.671 150.728 267.487 150.965 259.615 150.965Z" fill="#222E9A"/>
<path d="M242.072 77.2785C235.932 74.3386 229.744 71.5172 223.698 68.3877C223.13 67.9722 222.659 67.4396 222.315 66.826C221.972 66.2125 221.764 65.5322 221.706 64.8313C221.517 57.7187 221.706 50.4875 221.706 42.4502C222.812 43.1438 223.852 43.9375 224.812 44.8211C230.422 50.5494 235.649 56.6399 240.46 63.0532C242.831 66.6569 242.831 71.8966 244.016 76.4012L242.072 77.2785Z" fill="#222E9A"/>
<circle cx="143.437" cy="136.782" r="17.7816" fill="#FF871C"/>
</svg>
