<svg width="33" height="32" viewBox="0 0 33 32" fill="none" xmlns="http://www.w3.org/2000/svg">
<path d="M16.5 2L4.5 6V18C4.5 24.6281 9.87187 30 16.5 30C23.1281 30 28.5 24.6281 28.5 18V6L16.5 2ZM26.25 18C26.25 23.3844 21.8844 27.75 16.5 27.75C11.1156 27.75 6.75 23.3844 6.75 18V7.6875L16.5 4.25L26.25 7.6875V18Z" fill="#FF871C"/>
<path d="M12.3254 14.8469C12.2211 14.7421 12.0972 14.659 11.9607 14.6023C11.8242 14.5456 11.6779 14.5164 11.5301 14.5164C11.3823 14.5164 11.236 14.5456 11.0995 14.6023C10.963 14.659 10.8391 14.7421 10.7348 14.8469C10.63 14.9511 10.5469 15.0751 10.4902 15.2115C10.4335 15.348 10.4043 15.4944 10.4043 15.6422C10.4043 15.79 10.4335 15.9363 10.4902 16.0728C10.5469 16.2093 10.63 16.3332 10.7348 16.4375L14.7786 20.4812L14.8442 20.5468C14.9428 20.6457 15.06 20.724 15.1889 20.7775C15.3179 20.831 15.4561 20.8586 15.5957 20.8586C15.7354 20.8586 15.8736 20.831 16.0026 20.7775C16.1315 20.724 16.2487 20.6457 16.3473 20.5468L23.3317 13.5625C23.4305 13.4639 23.5089 13.3467 23.5624 13.2178C23.6159 13.0888 23.6434 12.9505 23.6434 12.8109C23.6434 12.6713 23.6159 12.5331 23.5624 12.4041C23.5089 12.2752 23.4305 12.158 23.3317 12.0594L23.2442 11.9719C23.1456 11.8731 23.0284 11.7947 22.8995 11.7412C22.7705 11.6877 22.6323 11.6602 22.4926 11.6602C22.353 11.6602 22.2148 11.6877 22.0858 11.7412C21.9568 11.7947 21.8397 11.8731 21.7411 11.9719L15.5942 18.1156L12.3254 14.8469Z" fill="#FF871C"/>
</svg>
