<svg width="32" height="32" viewBox="0 0 32 32" fill="none" xmlns="http://www.w3.org/2000/svg">
<path d="M11.0008 16.8588L22.2405 26.7497C22.3705 26.8641 22.5281 26.9428 22.6977 26.9781C22.8673 27.0133 23.0431 27.0039 23.208 26.9507C23.3729 26.8976 23.5211 26.8025 23.6382 26.6748C23.7552 26.5471 23.8371 26.3912 23.8758 26.2224L28.5775 5.7058C28.6182 5.52841 28.6097 5.34329 28.5529 5.17039C28.4961 4.9975 28.3932 4.84337 28.2553 4.72463C28.1174 4.60588 27.9497 4.52702 27.7703 4.49655C27.5909 4.46607 27.4065 4.48513 27.2372 4.55167L4.16755 13.6147C3.96649 13.6937 3.79642 13.8357 3.68278 14.0194C3.56913 14.2031 3.51803 14.4187 3.53711 14.6338C3.5562 14.849 3.64445 15.0522 3.78865 15.213C3.93286 15.3739 4.12527 15.4837 4.33709 15.5261L11.0008 16.8588Z" stroke="#FF871C" stroke-width="2" stroke-linecap="round" stroke-linejoin="round"/>
<path d="M11 16.8592L28.014 4.57129" stroke="#FF871C" stroke-width="2" stroke-linecap="round" stroke-linejoin="round"/>
<path d="M16.6134 21.7987L12.7071 25.7049C12.5673 25.8448 12.3891 25.94 12.1951 25.9786C12.0011 26.0172 11.8 25.9974 11.6173 25.9217C11.4346 25.846 11.2784 25.7179 11.1685 25.5534C11.0587 25.389 11 25.1956 11 24.9978V16.8589" stroke="#FF871C" stroke-width="2" stroke-linecap="round" stroke-linejoin="round"/>
</svg>
