<svg width="128" height="86" viewBox="0 0 128 86" fill="none" xmlns="http://www.w3.org/2000/svg">
<path d="M21.6065 2.13698V11.6569C24.9065 7.94688 28.9445 4.95699 33.4635 2.89699C37.9465 0.936993 42.7935 -0.0430217 47.6845 0.00697828C52.6245 -0.0630217 57.4845 1.25691 61.7115 3.81691C66.0325 6.51691 69.5185 10.3669 71.7785 14.9369C74.8425 10.2769 79.0195 6.45691 83.9325 3.81691C88.7905 1.25691 94.2055 -0.0530217 99.6925 0.00697828C105.162 -0.113022 110.552 1.31696 115.248 4.11696C119.498 6.61696 122.868 10.367 124.891 14.867C126.85 19.277 127.83 26.4569 127.83 36.4169V85.0369H106.878V42.9769C106.878 33.5769 105.709 27.217 103.373 23.887C101.036 20.557 97.5295 18.887 92.8505 18.897C89.4205 18.857 86.0685 19.9269 83.2925 21.9469C80.4085 24.0669 78.2205 26.997 77.0075 30.367C75.6355 33.947 74.9495 39.697 74.9495 47.617V85.0369H53.9975V44.887C53.9975 37.467 53.4505 32.097 52.3575 28.757C51.5265 25.837 49.8055 23.2469 47.4345 21.3469C45.1245 19.6869 42.3335 18.8269 39.4895 18.9069C36.0915 18.8869 32.7795 19.967 30.0515 21.997C27.1315 24.187 24.9285 27.197 23.7205 30.647C22.3235 34.347 21.6215 40.1869 21.6155 48.1669V85.0469H0.8125V22.9269C0.8145 17.4169 3.00652 12.1269 6.90552 8.22695C10.8045 4.32695 16.0925 2.13698 21.6065 2.13698Z" fill="#222E9A"/>
</svg>
