<svg width="74" height="86" viewBox="0 0 74 86" fill="none" xmlns="http://www.w3.org/2000/svg">
<path d="M20.8322 2.1371V10.6271C25.5482 6.65709 29.8212 3.89705 33.6532 2.33705C37.3822 0.807051 41.3752 0.00709496 45.4082 0.00709496C49.2992 -0.062905 53.1632 0.657109 56.7622 2.14711C60.3612 3.62711 63.6182 5.82708 66.3322 8.61708C71.1472 13.4971 73.5542 20.7071 73.5542 30.2571V85.037H52.9822V48.7271C52.9822 38.8371 52.5412 32.2671 51.6572 29.0171C50.9742 26.1071 49.3442 23.4971 47.0212 21.6071C44.6632 19.8571 41.7802 18.957 38.8452 19.057C34.8212 18.977 30.9312 20.497 28.0172 23.277C25.0072 26.087 22.9152 29.987 21.7412 34.957C21.1222 37.537 20.8132 43.1471 20.8132 51.7671V85.037H-0.0078125V22.917C-0.0058125 20.187 0.535167 17.477 1.58417 14.957C2.63317 12.437 4.16919 10.137 6.10419 8.20705C8.04019 6.27705 10.3372 4.74705 12.8642 3.70705C15.3912 2.66705 18.0992 2.1271 20.8322 2.1371Z" fill="#222E9A"/>
</svg>
