<svg width="88" height="88" viewBox="0 0 88 88" fill="none" xmlns="http://www.w3.org/2000/svg">
<path d="M87.1254 49.6267H20.3034C21.0454 55.1167 23.8054 60.1266 28.0444 63.6866C32.2344 67.1666 37.5804 68.9066 44.0824 68.9066C47.7974 68.9566 51.4844 68.2566 54.9264 66.8566C58.3674 65.4566 61.4924 63.3867 64.1164 60.7567L81.6374 68.9866C77.6664 74.8366 72.2624 79.5666 65.9424 82.7366C59.8484 85.6966 52.6114 87.1866 44.2304 87.1966C31.2514 87.1966 20.6614 83.0867 12.4604 74.8867C4.25944 66.6767 0.170426 56.4066 0.195426 44.0666C0.195426 31.4166 4.27142 20.9166 12.4234 12.5466C20.5754 4.17658 30.7974 -0.00332701 43.0904 0.016673C56.1434 0.016673 66.7584 4.18658 74.9344 12.5466C83.1114 20.9066 87.1995 31.9566 87.1995 45.7066L87.1254 49.6267ZM66.3224 33.2467C64.9834 28.6667 62.1134 24.6866 58.1924 21.9766C54.0864 19.0566 49.1544 17.5367 44.1194 17.6267C38.6324 17.5267 33.2654 19.2467 28.8504 22.5067C26.1064 24.5467 23.5634 28.1267 21.2214 33.2467H66.3224Z" fill="#222E9A"/>
</svg>
