<svg width="35" height="685" viewBox="0 0 35 685" fill="none" xmlns="http://www.w3.org/2000/svg">
<path d="M14.2586 2.32852e-07C14.2586 2.32852e-07 20.5794 17.6385 21.0204 33.8272C21.4614 50.2575 21.0204 64.2716 18.8155 84.3262C15.8756 111.63 3.9689 164.303 10.4367 192.332C16.9046 220.36 17.1985 221.567 21.3144 235.824C26.0183 251.77 35.4261 284.148 34.985 324.257C34.544 367.024 10.5837 444.586 11.7596 476.479C11.9067 479.863 12.9356 492.427 14.6996 501.85C16.4636 511.032 20.2854 524.562 21.6084 542.926C22.1964 550.658 23.2254 562.981 22.9314 577.236C22.7844 580.861 22.3434 592.459 20.5794 606.23C18.8155 620.003 16.0225 632.81 15.1406 644.407C13.5236 669.294 15.8756 685 15.8756 685H0L5.9648e-06 0L14.2586 2.32852e-07ZM16.6106 54.8484C15.1406 56.5398 16.0225 59.6808 16.0225 65.238C16.0225 70.7954 14.2586 79.977 14.4056 79.2522C14.5526 78.5273 16.6106 71.7618 17.1985 64.7548C17.9335 57.5062 18.0805 53.3986 16.6106 54.8484ZM12.6417 99.3069C12.6417 99.3069 12.3477 105.106 11.3187 112.838C10.1427 120.57 7.20281 137.725 6.17384 149.323C4.55688 169.136 6.17384 187.5 6.32084 185.808C6.46783 183.875 5.43886 162.612 7.9378 143.283C8.96676 135.309 11.1717 120.811 11.9067 113.321C12.7887 105.347 12.6417 99.3069 12.6417 99.3069ZM12.4946 237.516C11.4657 233.407 19.4035 269.65 21.4614 282.215C22.3434 287.289 23.8134 297.195 24.4013 306.377C24.9894 315.8 24.9894 327.882 25.1363 327.64C25.4303 327.64 26.3123 313.626 25.1363 300.578C23.9604 287.531 23.5194 288.014 22.7844 282.215C21.6084 273.034 13.5236 241.623 12.4946 237.516ZM10.1427 203.93C10.1427 203.446 9.55474 205.863 11.7596 215.527C13.9646 225.192 16.9046 231.716 17.1985 232.2C17.3456 232.682 14.5526 223.743 12.7887 216.252C11.0248 209.003 10.1427 204.171 10.1427 203.93ZM8.81976 1.20812C8.96676 1.44973 10.4367 5.79892 12.4946 12.806C14.5526 19.8131 16.6106 29.478 16.4636 28.9947C16.4636 28.5115 15.5816 20.5379 12.7887 11.1146C9.99574 1.69139 8.67278 0.966501 8.81976 1.20812ZM17.0515 609.372C16.7575 609.131 16.7575 613.963 15.2875 620.246C13.8177 626.527 12.9356 633.292 12.3477 639.091C11.1717 648.757 12.4946 667.361 12.6417 666.395C12.7887 665.671 12.2007 646.582 13.6706 636.192C14.4056 630.877 14.4056 630.393 16.0225 622.42C17.6396 614.446 17.4925 609.614 17.0515 609.372ZM13.5236 508.615C13.3767 507.649 11.1717 500.158 9.70174 488.319C8.08478 476.479 8.96676 466.815 8.52577 466.815C8.08478 466.815 7.20281 469.23 8.08478 481.795C8.96676 494.36 13.6706 509.582 13.5236 508.615ZM9.84874 511.998C9.99573 511.516 7.93779 503.783 7.3498 498.225C6.90882 492.668 6.61482 493.634 6.46782 493.634C6.32083 493.634 6.17384 496.292 6.76182 500.158C7.4968 504.267 9.70174 512.481 9.84874 511.998ZM6.46782 458.842C6.76182 458.599 7.6438 450.385 9.11376 445.31C10.5837 440.236 9.99573 440.961 9.84874 440.719C9.70174 440.478 8.67277 442.652 7.93779 446.519C7.05581 450.385 6.17384 459.083 6.46782 458.842ZM16.3165 526.979C16.7575 527.22 17.0515 526.254 16.0225 522.388C14.9936 518.522 14.1116 516.106 14.2586 517.072C14.4056 518.039 14.8466 519.246 15.4346 523.113C16.0225 527.22 15.8756 526.738 16.3165 526.979ZM18.2275 601.64C18.2275 602.123 19.4035 596.567 19.5505 593.666C19.6975 590.767 19.6975 588.834 19.2565 588.834C18.8155 588.834 18.5215 589.075 18.6685 592.7C18.8155 596.566 18.2275 601.157 18.2275 601.64ZM31.0162 317.251C31.1632 317.492 30.5752 323.049 30.5752 335.372C30.5752 347.454 27.0473 368.233 25.4303 376.931C23.8134 385.629 31.1632 352.77 31.4571 337.064C31.7511 321.358 30.8692 317.008 31.0162 317.251Z" fill="#fff0d4"/>
</svg>
