<svg width="32" height="685" viewBox="0 0 32 685" fill="none" xmlns="http://www.w3.org/2000/svg">
<path d="M18.9635 2.32852e-07C18.9635 2.32852e-07 13.1845 17.6385 12.7813 33.8272C12.3782 50.2575 12.7813 64.2716 14.7972 84.3262C17.4852 111.63 28.3713 164.303 22.4579 192.332C16.5444 220.36 16.2757 221.567 12.5125 235.824C8.21186 251.77 -0.389569 284.148 0.0136986 324.257C0.416875 367.024 22.3235 444.586 21.2483 476.479C21.1139 479.863 20.1732 492.427 18.5604 501.85C16.9476 511.032 13.4533 524.562 12.2437 542.926C11.7062 550.658 10.7654 562.981 11.0342 577.236C11.1685 580.861 11.5717 592.459 13.1845 606.23C14.7972 620.003 17.3508 632.81 18.1572 644.407C19.6355 669.294 17.4852 685 17.4852 685H32L32 0L18.9635 2.32852e-07ZM16.8132 54.8484C18.1572 56.5398 17.3508 59.6808 17.3508 65.238C17.3508 70.7954 18.9635 79.977 18.8292 79.2522C18.6947 78.5273 16.8132 71.7618 16.2757 64.7548C15.6037 57.5062 15.4692 53.3986 16.8132 54.8484ZM20.4419 99.3069C20.4419 99.3069 20.7107 105.106 21.6515 112.838C22.7267 120.57 25.4146 137.725 26.3553 149.323C27.8337 169.136 26.3553 187.5 26.2209 185.808C26.0866 183.875 27.0273 162.612 24.7426 143.283C23.8018 135.309 21.7859 120.811 21.1139 113.321C20.3075 105.347 20.4419 99.3069 20.4419 99.3069ZM20.5763 237.516C21.517 233.407 14.2597 269.65 12.3782 282.215C11.5717 287.289 10.2277 297.195 9.6902 306.377C9.15258 315.8 9.15257 327.882 9.01821 327.64C8.7494 327.64 7.94305 313.626 9.01821 300.578C10.0934 287.531 10.4966 288.014 11.1685 282.215C12.2437 273.034 19.6355 241.623 20.5763 237.516ZM22.7267 203.93C22.7267 203.446 23.2642 205.863 21.2483 215.527C19.2324 225.192 16.5444 231.716 16.2757 232.2C16.1412 232.682 18.6947 223.743 20.3075 216.252C21.9202 209.003 22.7267 204.171 22.7267 203.93ZM23.9362 1.20812C23.8018 1.44973 22.4579 5.79892 20.5763 12.806C18.6947 19.8131 16.8132 29.478 16.9476 28.9947C16.9476 28.5115 17.754 20.5379 20.3075 11.1146C22.861 1.69139 24.0706 0.966501 23.9362 1.20812ZM16.41 609.372C16.6788 609.131 16.6788 613.963 18.0228 620.246C19.3667 626.527 20.1732 633.292 20.7107 639.091C21.7859 648.757 20.5763 667.361 20.4419 666.395C20.3075 665.671 20.8451 646.582 19.5012 636.192C18.8292 630.877 18.8292 630.393 17.3508 622.42C15.8724 614.446 16.0068 609.614 16.41 609.372ZM19.6355 508.615C19.7699 507.649 21.7859 500.158 23.1298 488.319C24.6082 476.479 23.8018 466.815 24.205 466.815C24.6082 466.815 25.4146 469.23 24.6082 481.795C23.8018 494.36 19.5012 509.582 19.6355 508.615ZM22.9954 511.998C22.861 511.516 24.7426 503.783 25.2802 498.225C25.6834 492.668 25.9522 493.634 26.0866 493.634C26.221 493.634 26.3553 496.292 25.8178 500.158C25.1458 504.267 23.1298 512.481 22.9954 511.998ZM26.0866 458.842C25.8178 458.599 25.0114 450.385 23.6674 445.31C22.3235 440.236 22.861 440.961 22.9954 440.719C23.1298 440.478 24.0706 442.652 24.7426 446.519C25.549 450.385 26.3553 459.083 26.0866 458.842ZM17.082 526.979C16.6788 527.22 16.41 526.254 17.3508 522.388C18.2915 518.522 19.098 516.106 18.9635 517.072C18.8292 518.039 18.426 519.246 17.8884 523.113C17.3508 527.22 17.4852 526.738 17.082 526.979ZM15.3349 601.64C15.3349 602.123 14.2597 596.566 14.1252 593.666C13.9909 590.767 13.9909 588.834 14.3941 588.834C14.7972 588.834 15.066 589.075 14.9317 592.7C14.7972 596.567 15.3349 601.157 15.3349 601.64ZM3.64238 317.251C3.50792 317.492 4.04555 323.049 4.04555 335.372C4.04555 347.454 7.27106 368.233 8.7494 376.931C10.2277 385.629 3.50792 352.77 3.2392 337.064C2.97039 321.358 3.77674 317.008 3.64238 317.251Z" fill="#DBE9FF"/>
</svg>
